<svg width="30" height="30" viewBox="0 0 30 30" fill="none" xmlns="http://www.w3.org/2000/svg">
<rect width="30" height="30" rx="15" fill="#FF8E17"/>
<path d="M9.31266 18C9.24599 18 9.18932 17.9767 9.14266 17.93C9.09599 17.8833 9.07266 17.8267 9.07266 17.76V16.75C9.07266 16.6833 9.09599 16.6267 9.14266 16.58C9.18932 16.5333 9.24599 16.51 9.31266 16.51H10.3227C10.3893 16.51 10.446 16.5333 10.4927 16.58C10.5393 16.6267 10.5627 16.6833 10.5627 16.75V17.76C10.5627 17.8267 10.5393 17.8833 10.4927 17.93C10.4527 17.9767 10.396 18 10.3227 18H9.31266ZM13.3282 18.1C12.9882 18.1 12.6749 18.0333 12.3882 17.9C12.1082 17.76 11.8849 17.5733 11.7182 17.34C11.5582 17.1067 11.4782 16.85 11.4782 16.57C11.4782 16.1167 11.6615 15.75 12.0282 15.47C12.3949 15.19 12.8982 15 13.5382 14.9L14.9082 14.7V14.49C14.9082 14.2033 14.8349 13.9867 14.6882 13.84C14.5415 13.6933 14.3082 13.62 13.9882 13.62C13.7682 13.62 13.5915 13.66 13.4582 13.74C13.3249 13.82 13.2149 13.9033 13.1282 13.99C13.0482 14.07 12.9949 14.1233 12.9682 14.15C12.9415 14.23 12.8915 14.27 12.8182 14.27H12.0382C11.9782 14.27 11.9249 14.25 11.8782 14.21C11.8382 14.17 11.8182 14.1167 11.8182 14.05C11.8249 13.8833 11.9049 13.6967 12.0582 13.49C12.2182 13.2767 12.4615 13.0933 12.7882 12.94C13.1149 12.78 13.5182 12.7 13.9982 12.7C14.7849 12.7 15.3582 12.8767 15.7182 13.23C16.0782 13.5833 16.2582 14.0467 16.2582 14.62V17.76C16.2582 17.8267 16.2349 17.8833 16.1882 17.93C16.1482 17.9767 16.0915 18 16.0182 18H15.1882C15.1215 18 15.0649 17.9767 15.0182 17.93C14.9715 17.8833 14.9482 17.8267 14.9482 17.76V17.37C14.8015 17.5833 14.5949 17.76 14.3282 17.9C14.0615 18.0333 13.7282 18.1 13.3282 18.1ZM13.6682 17.14C14.0349 17.14 14.3349 17.02 14.5682 16.78C14.8015 16.54 14.9182 16.1933 14.9182 15.74V15.54L13.9182 15.7C13.1515 15.82 12.7682 16.0767 12.7682 16.47C12.7682 16.6833 12.8549 16.85 13.0282 16.97C13.2082 17.0833 13.4215 17.14 13.6682 17.14ZM17.7409 11.95C17.6742 11.95 17.6175 11.9267 17.5709 11.88C17.5242 11.8333 17.5009 11.7767 17.5009 11.71V10.98C17.5009 10.9067 17.5242 10.8467 17.5709 10.8C17.6175 10.7533 17.6742 10.73 17.7409 10.73H18.6609C18.7342 10.73 18.7942 10.7533 18.8409 10.8C18.8875 10.8467 18.9109 10.9067 18.9109 10.98V11.71C18.9109 11.7767 18.8842 11.8333 18.8309 11.88C18.7842 11.9267 18.7275 11.95 18.6609 11.95H17.7409ZM17.7809 18C17.7142 18 17.6575 17.9767 17.6109 17.93C17.5642 17.8833 17.5409 17.8267 17.5409 17.76V13.04C17.5409 12.9667 17.5642 12.91 17.6109 12.87C17.6575 12.8233 17.7142 12.8 17.7809 12.8H18.6309C18.6975 12.8 18.7542 12.8233 18.8009 12.87C18.8475 12.9167 18.8709 12.9733 18.8709 13.04V17.76C18.8709 17.8267 18.8475 17.8833 18.8009 17.93C18.7542 17.9767 18.6975 18 18.6309 18H17.7809Z" fill="white"/>
</svg>
