<svg width="47" height="46" viewBox="0 0 47 46" fill="none" xmlns="http://www.w3.org/2000/svg">
<circle cx="36.5" cy="10.5" r="9.5" fill="#FFA546" stroke="white" stroke-width="2"/>
<path d="M29.0188 40.1279C29.6699 38.7553 29.9998 37.2831 29.9998 35.7471C29.9998 30.2642 25.6461 25.7733 20.1945 25.5096C18.966 21.0857 14.9303 18 10.3127 18C4.6265 18 0.000451539 22.5981 0.000451539 28.25C0.000451539 29.7859 0.330327 31.2581 0.981407 32.6307L0.017502 37.4491C-0.105191 38.0625 0.436087 38.6046 1.04978 38.4832L5.92931 37.5189C7.15166 38.0985 8.45195 38.4224 9.80637 38.487C11.5142 44.6341 18.3736 47.7174 24.0708 45.016C29.4149 46.0721 28.9981 45.9971 29.1209 45.9971C29.6763 45.9971 30.0911 45.4883 29.9827 44.9462L29.0188 40.1279ZM6.45078 35.817C6.27494 35.7272 6.07386 35.6991 5.88027 35.7374L1.9991 36.5045L2.76367 32.6828C2.80252 32.4886 2.77463 32.2869 2.68434 32.1105C2.06988 30.9089 1.75823 29.6101 1.75823 28.25C1.75823 23.567 5.59574 19.7571 10.3127 19.7571C13.9991 19.7571 17.2453 22.1533 18.3798 25.5801C13.0065 26.2669 8.95959 31.1135 9.47878 36.7023C8.41972 36.6005 7.40513 36.3047 6.45078 35.817ZM27.2366 40.1799L28.0012 44.0017L24.12 43.2345C23.9263 43.1963 23.7254 43.2243 23.5495 43.3141C22.3474 43.9284 21.0482 44.2399 19.6876 44.2399C15.0029 44.2399 11.1917 40.43 11.1917 35.7471C11.1917 31.0641 15.0029 27.2543 19.6876 27.2543C24.4046 27.2543 28.2421 31.0641 28.2421 35.7471C28.2421 37.1072 27.9305 38.406 27.316 39.6076C27.2257 39.784 27.1978 39.9857 27.2366 40.1799Z" fill="white"/>
<circle cx="16" cy="36" r="1" fill="white"/>
<circle cx="20" cy="36" r="1" fill="white"/>
<circle cx="24" cy="36" r="1" fill="white"/>
</svg>
