<svg width="30" height="30" viewBox="0 0 30 30" fill="none" xmlns="http://www.w3.org/2000/svg">
<rect width="30" height="30" rx="15" fill="#2A5699"/>
<path d="M4.63492 18C4.56826 18 4.51159 17.9767 4.46492 17.93C4.41826 17.8833 4.39492 17.8267 4.39492 17.76V16.75C4.39492 16.6833 4.41826 16.6267 4.46492 16.58C4.51159 16.5333 4.56826 16.51 4.63492 16.51H5.64492C5.71159 16.51 5.76826 16.5333 5.81492 16.58C5.86159 16.6267 5.88492 16.6833 5.88492 16.75V17.76C5.88492 17.8267 5.86159 17.8833 5.81492 17.93C5.77492 17.9767 5.71826 18 5.64492 18H4.63492ZM9.00211 18.1C8.32878 18.1 7.81211 17.8867 7.45211 17.46C7.09211 17.0267 6.89544 16.45 6.86211 15.73L6.85211 15.4L6.86211 15.07C6.88878 14.3633 7.08211 13.7933 7.44211 13.36C7.80878 12.92 8.32878 12.7 9.00211 12.7C9.64211 12.7 10.1521 12.92 10.5321 13.36V11.14C10.5321 11.0667 10.5554 11.01 10.6021 10.97C10.6488 10.9233 10.7054 10.9 10.7721 10.9H11.6421C11.7154 10.9 11.7721 10.9233 11.8121 10.97C11.8588 11.01 11.8821 11.0667 11.8821 11.14V17.76C11.8821 17.8267 11.8588 17.8833 11.8121 17.93C11.7721 17.9767 11.7154 18 11.6421 18H10.8321C10.7654 18 10.7088 17.9767 10.6621 17.93C10.6154 17.8833 10.5921 17.8267 10.5921 17.76V17.39C10.2254 17.8633 9.69544 18.1 9.00211 18.1ZM9.38211 17.02C9.76211 17.02 10.0421 16.9 10.2221 16.66C10.4088 16.4133 10.5121 16.11 10.5321 15.75C10.5388 15.67 10.5421 15.5433 10.5421 15.37C10.5421 15.19 10.5388 15.06 10.5321 14.98C10.5188 14.6467 10.4154 14.3633 10.2221 14.13C10.0288 13.8967 9.74878 13.78 9.38211 13.78C8.66878 13.78 8.28878 14.22 8.24211 15.1L8.23211 15.4L8.24211 15.7C8.28878 16.58 8.66878 17.02 9.38211 17.02ZM15.5247 18.1C14.738 18.1 14.1314 17.9 13.7047 17.5C13.278 17.1 13.048 16.5467 13.0147 15.84L13.0047 15.4L13.0147 14.96C13.048 14.26 13.2814 13.71 13.7147 13.31C14.148 12.9033 14.7514 12.7 15.5247 12.7C16.2914 12.7 16.8914 12.9033 17.3247 13.31C17.758 13.71 17.9914 14.26 18.0247 14.96C18.0314 15.04 18.0347 15.1867 18.0347 15.4C18.0347 15.6133 18.0314 15.76 18.0247 15.84C17.9914 16.5467 17.7614 17.1 17.3347 17.5C16.908 17.9 16.3047 18.1 15.5247 18.1ZM15.5247 17.09C15.878 17.09 16.148 16.98 16.3347 16.76C16.528 16.54 16.6314 16.2167 16.6447 15.79C16.6514 15.7233 16.6547 15.5933 16.6547 15.4C16.6547 15.2067 16.6514 15.0767 16.6447 15.01C16.6314 14.5833 16.528 14.26 16.3347 14.04C16.1414 13.8133 15.8714 13.7 15.5247 13.7C15.1714 13.7 14.898 13.8133 14.7047 14.04C14.5114 14.26 14.408 14.5833 14.3947 15.01L14.3847 15.4L14.3947 15.79C14.408 16.2167 14.5114 16.54 14.7047 16.76C14.898 16.98 15.1714 17.09 15.5247 17.09ZM21.3924 18.1C20.6591 18.1 20.0724 17.8967 19.6324 17.49C19.1991 17.0833 18.9691 16.52 18.9424 15.8L18.9324 15.4L18.9424 15C18.9691 14.28 19.1991 13.7167 19.6324 13.31C20.0724 12.9033 20.6591 12.7 21.3924 12.7C21.9191 12.7 22.3624 12.7933 22.7224 12.98C23.0891 13.1667 23.3591 13.3967 23.5324 13.67C23.7124 13.9367 23.8091 14.1933 23.8224 14.44C23.8291 14.5067 23.8058 14.5633 23.7524 14.61C23.7058 14.6567 23.6491 14.68 23.5824 14.68H22.6924C22.6191 14.68 22.5658 14.6667 22.5324 14.64C22.4991 14.6067 22.4658 14.55 22.4324 14.47C22.3324 14.2167 22.1991 14.0333 22.0324 13.92C21.8724 13.8067 21.6658 13.75 21.4124 13.75C21.0724 13.75 20.8058 13.8567 20.6124 14.07C20.4258 14.2833 20.3258 14.61 20.3124 15.05L20.3024 15.42L20.3124 15.75C20.3524 16.6167 20.7191 17.05 21.4124 17.05C21.6724 17.05 21.8824 16.9967 22.0424 16.89C22.2024 16.7767 22.3324 16.59 22.4324 16.33C22.4591 16.2567 22.4891 16.2033 22.5224 16.17C22.5624 16.1367 22.6191 16.12 22.6924 16.12H23.5824C23.6491 16.12 23.7058 16.1433 23.7524 16.19C23.8058 16.2367 23.8291 16.2933 23.8224 16.36C23.8091 16.5933 23.7158 16.8467 23.5424 17.12C23.3691 17.3867 23.1024 17.6167 22.7424 17.81C22.3824 18.0033 21.9324 18.1 21.3924 18.1Z" fill="white"/>
</svg>
