<svg width="18" height="14" viewBox="0 0 18 14" fill="none" xmlns="http://www.w3.org/2000/svg">
<path d="M9 0C4.02975 0 0 6.66225 0 6.66225C0 6.66225 4.02975 13.5 9 13.5C13.9703 13.5 18 6.66225 18 6.66225C18 6.66225 13.9703 0 9 0ZM9 11.25C6.51487 11.25 4.5 9.23512 4.5 6.75C4.5 4.26487 6.51487 2.25 9 2.25C11.4851 2.25 13.5 4.26487 13.5 6.75C13.5 9.23512 11.4851 11.25 9 11.25Z" fill="#06081C" fill-opacity="0.25"/>
<path d="M9 9.009C10.2426 9.009 11.25 8.00164 11.25 6.759C11.25 5.51636 10.2426 4.509 9 4.509C7.75736 4.509 6.75 5.51636 6.75 6.759C6.75 8.00164 7.75736 9.009 9 9.009Z" fill="#06081C" fill-opacity="0.25"/>
</svg>
