<svg width="20" height="20" viewBox="0 0 20 20" fill="none" xmlns="http://www.w3.org/2000/svg">
<path d="M10 20C15.5228 20 20 15.5228 20 10C20 4.47715 15.5228 0 10 0C4.47715 0 0 4.47715 0 10C0 15.5228 4.47715 20 10 20Z" fill="#3B5998"/>
<path d="M10 20C15.5228 20 20 15.5228 20 10C20 4.47715 15.5228 0 10 0C4.47715 0 0 4.47715 0 10C0 15.5228 4.47715 20 10 20Z" fill="#3B5998"/>
<path d="M13.6376 13.4817H10.9681V23H6.92358V13.4817H5V10.1366H6.92358V7.97193C6.92358 6.42396 7.67909 4 11.0041 4L14 4.0122V7.2592H11.8263C11.4697 7.2592 10.9684 7.43258 10.9684 8.171V10.1397H13.9909L13.6376 13.4817Z" fill="white"/>

</svg>
