<svg width="28" height="28" viewBox="0 0 28 28" fill="none" xmlns="http://www.w3.org/2000/svg">
<path d="M5.95668 5.95669L5.95669 5.95668C8.10593 3.80725 10.9631 2.62377 14.0028 2.62377C17.0425 2.62377 19.8997 3.80725 22.0489 5.95668L22.1196 5.88597L22.0489 5.95669C24.1984 8.10593 25.3819 10.9631 25.3819 14.0028C25.3819 17.0425 24.1984 19.8997 22.0489 22.0489L22.1196 22.1196L22.0489 22.0489C19.8997 24.1984 17.0425 25.3819 14.0028 25.3819C10.9631 25.3819 8.10593 24.1984 5.95669 22.0489L5.88597 22.1196L5.95668 22.0489C3.80725 19.8997 2.62377 17.0425 2.62377 14.0028C2.62377 10.9631 3.80725 8.10593 5.95668 5.95669ZM23.2679 4.73771C20.7933 2.26308 17.5024 0.9 14.0028 0.9C10.5032 0.9 7.21235 2.26308 4.73771 4.73771C2.26308 7.21235 0.9 10.5032 0.9 14.0028C0.9 17.5024 2.26308 20.7933 4.73771 23.2679C7.21235 25.7425 10.5032 27.1056 14.0028 27.1056C17.5024 27.1056 20.7933 25.7425 23.2679 23.2679C25.7425 20.7933 27.1056 17.5024 27.1056 14.0028C27.1056 10.5032 25.7425 7.21235 23.2679 4.73771Z" fill="#ABAFB1" />
<path d="M16.5886 18.1751H16.5531V12.7917C16.5531 12.1602 16.0392 11.6465 15.4079 11.6465H11.6203C10.9888 11.6465 10.4751 12.1602 10.4751 12.7917V14.651C10.4751 15.2825 10.9888 15.7962 11.6203 15.7962H11.6596V18.1751H11.6203C10.9888 18.1751 10.4751 18.6887 10.4751 19.3203V21.1795C10.4751 21.8111 10.9888 22.3247 11.6203 22.3247H16.5886C17.2201 22.3247 17.7338 21.8111 17.7338 21.1795V19.3203C17.7338 18.6889 17.2199 18.1751 16.5886 18.1751ZM16.2101 20.8012H11.9987V19.6988H12.3647C12.8161 19.6988 13.1834 19.3316 13.1834 18.8802V15.091C13.1834 14.6396 12.8161 14.2726 12.3647 14.2726H11.9987V13.1702H15.0293V18.8802C15.0293 19.3316 15.3966 19.6988 15.848 19.6988H16.2101V20.8012Z" fill="#ABAFB1"/>
<path d="M14.1044 10.0189C15.4607 10.0189 16.564 8.91557 16.564 7.55926C16.564 6.20315 15.4607 5.09961 14.1044 5.09961C12.748 5.09961 11.6447 6.20315 11.6447 7.55926C11.6447 8.91557 12.748 10.0189 14.1044 10.0189ZM14.1044 6.62338C14.6204 6.62338 15.0402 7.0434 15.0402 7.55926C15.0402 8.07532 14.6204 8.49515 14.1044 8.49515C13.5883 8.49515 13.1685 8.07532 13.1685 7.55926C13.1685 7.0434 13.5883 6.62338 14.1044 6.62338Z" fill="#ABAFB1"/>
<path d="M16.5886 18.1751H16.5531V12.7917C16.5531 12.1602 16.0392 11.6465 15.4079 11.6465H11.6203C10.9888 11.6465 10.4751 12.1602 10.4751 12.7917V14.651C10.4751 15.2825 10.9888 15.7962 11.6203 15.7962H11.6596V18.1751H11.6203C10.9888 18.1751 10.4751 18.6887 10.4751 19.3203V21.1795C10.4751 21.8111 10.9888 22.3247 11.6203 22.3247H16.5886C17.2201 22.3247 17.7338 21.8111 17.7338 21.1795V19.3203C17.7338 18.6889 17.2199 18.1751 16.5886 18.1751ZM16.2101 20.8012H11.9987V19.6988H12.3647C12.8161 19.6988 13.1834 19.3316 13.1834 18.8802V15.091C13.1834 14.6396 12.8161 14.2726 12.3647 14.2726H11.9987V13.1702H15.0293V18.8802C15.0293 19.3316 15.3966 19.6988 15.848 19.6988H16.2101V20.8012Z" stroke="#ABAFB1" stroke-width="0.2"/>
<path d="M14.1044 10.0189C15.4607 10.0189 16.564 8.91557 16.564 7.55926C16.564 6.20315 15.4607 5.09961 14.1044 5.09961C12.748 5.09961 11.6447 6.20315 11.6447 7.55926C11.6447 8.91557 12.748 10.0189 14.1044 10.0189ZM14.1044 6.62338C14.6204 6.62338 15.0402 7.0434 15.0402 7.55926C15.0402 8.07532 14.6204 8.49515 14.1044 8.49515C13.5883 8.49515 13.1685 8.07532 13.1685 7.55926C13.1685 7.0434 13.5883 6.62338 14.1044 6.62338Z" stroke="#ABAFB1" stroke-width="0.2"/>
</svg>
