<svg width="30" height="30" viewBox="0 0 30 30" fill="none" xmlns="http://www.w3.org/2000/svg">
<rect width="30" height="30" rx="15" fill="#FFA546"/>
<path d="M20.0363 23H13.4908C12.7392 23 12.1272 22.2994 12.1272 21.4375V12.0625C12.1272 11.2006 12.7392 10.5 13.4908 10.5H20.0363C20.7879 10.5 21.3999 11.2006 21.3999 12.0625V21.4375C21.3999 22.2994 20.7879 23 20.0363 23ZM13.4908 11.125C13.0397 11.125 12.6726 11.5456 12.6726 12.0625V21.4375C12.6726 21.9544 13.0397 22.375 13.4908 22.375H20.0363C20.4874 22.375 20.8544 21.9544 20.8544 21.4375V12.0625C20.8544 11.5456 20.4874 11.125 20.0363 11.125H13.4908Z" fill="white"/>
<path d="M10.309 20.125H9.76354C9.0119 20.125 8.3999 19.4244 8.3999 18.5625V8.5625C8.3999 7.70063 9.0119 7 9.76354 7H16.309C17.0606 7 17.6726 7.70063 17.6726 8.5625C17.6726 8.735 17.5504 8.875 17.3999 8.875C17.2494 8.875 17.1272 8.735 17.1272 8.5625C17.1272 8.04563 16.7601 7.625 16.309 7.625H9.76354C9.31245 7.625 8.94536 8.04563 8.94536 8.5625V18.5625C8.94536 19.0794 9.31245 19.5 9.76354 19.5H10.309C10.4595 19.5 10.5817 19.64 10.5817 19.8125C10.5817 19.985 10.4595 20.125 10.309 20.125Z" fill="white"/>
<path d="M18.9454 18.625H14.5817C14.4312 18.625 14.309 18.485 14.309 18.3125C14.309 18.14 14.4312 18 14.5817 18H18.9454C19.0959 18 19.2181 18.14 19.2181 18.3125C19.2181 18.485 19.0959 18.625 18.9454 18.625Z" fill="white"/>
<path d="M18.9454 21.125H14.5817C14.4312 21.125 14.309 20.985 14.309 20.8125C14.309 20.64 14.4312 20.5 14.5817 20.5H18.9454C19.0959 20.5 19.2181 20.64 19.2181 20.8125C19.2181 20.985 19.0959 21.125 18.9454 21.125Z" fill="white"/>
<path d="M18.9454 16.125H14.5817C14.4312 16.125 14.309 15.985 14.309 15.8125C14.309 15.64 14.4312 15.5 14.5817 15.5H18.9454C19.0959 15.5 19.2181 15.64 19.2181 15.8125C19.2181 15.985 19.0959 16.125 18.9454 16.125Z" fill="white"/>
<path d="M18.9454 13.625H14.5817C14.4312 13.625 14.309 13.485 14.309 13.3125C14.309 13.14 14.4312 13 14.5817 13H18.9454C19.0959 13 19.2181 13.14 19.2181 13.3125C19.2181 13.485 19.0959 13.625 18.9454 13.625Z" fill="white"/>
<path d="M20.0363 23H13.4908C12.7392 23 12.1272 22.2994 12.1272 21.4375V12.0625C12.1272 11.2006 12.7392 10.5 13.4908 10.5H20.0363C20.7879 10.5 21.3999 11.2006 21.3999 12.0625V21.4375C21.3999 22.2994 20.7879 23 20.0363 23ZM13.4908 11.125C13.0397 11.125 12.6726 11.5456 12.6726 12.0625V21.4375C12.6726 21.9544 13.0397 22.375 13.4908 22.375H20.0363C20.4874 22.375 20.8544 21.9544 20.8544 21.4375V12.0625C20.8544 11.5456 20.4874 11.125 20.0363 11.125H13.4908Z" stroke="white" stroke-width="0.5"/>
<path d="M10.309 20.125H9.76354C9.0119 20.125 8.3999 19.4244 8.3999 18.5625V8.5625C8.3999 7.70063 9.0119 7 9.76354 7H16.309C17.0606 7 17.6726 7.70063 17.6726 8.5625C17.6726 8.735 17.5504 8.875 17.3999 8.875C17.2494 8.875 17.1272 8.735 17.1272 8.5625C17.1272 8.04563 16.7601 7.625 16.309 7.625H9.76354C9.31245 7.625 8.94536 8.04563 8.94536 8.5625V18.5625C8.94536 19.0794 9.31245 19.5 9.76354 19.5H10.309C10.4595 19.5 10.5817 19.64 10.5817 19.8125C10.5817 19.985 10.4595 20.125 10.309 20.125Z" stroke="white" stroke-width="0.5"/>
<path d="M18.9454 18.625H14.5817C14.4312 18.625 14.309 18.485 14.309 18.3125C14.309 18.14 14.4312 18 14.5817 18H18.9454C19.0959 18 19.2181 18.14 19.2181 18.3125C19.2181 18.485 19.0959 18.625 18.9454 18.625Z" stroke="white" stroke-width="0.5"/>
<path d="M18.9454 21.125H14.5817C14.4312 21.125 14.309 20.985 14.309 20.8125C14.309 20.64 14.4312 20.5 14.5817 20.5H18.9454C19.0959 20.5 19.2181 20.64 19.2181 20.8125C19.2181 20.985 19.0959 21.125 18.9454 21.125Z" stroke="white" stroke-width="0.5"/>
<path d="M18.9454 16.125H14.5817C14.4312 16.125 14.309 15.985 14.309 15.8125C14.309 15.64 14.4312 15.5 14.5817 15.5H18.9454C19.0959 15.5 19.2181 15.64 19.2181 15.8125C19.2181 15.985 19.0959 16.125 18.9454 16.125Z" stroke="white" stroke-width="0.5"/>
<path d="M18.9454 13.625H14.5817C14.4312 13.625 14.309 13.485 14.309 13.3125C14.309 13.14 14.4312 13 14.5817 13H18.9454C19.0959 13 19.2181 13.14 19.2181 13.3125C19.2181 13.485 19.0959 13.625 18.9454 13.625Z" stroke="white" stroke-width="0.5"/>
</svg>
