<svg width="36" height="35" viewBox="0 0 36 35" fill="none" xmlns="http://www.w3.org/2000/svg">
<circle cx="18.0667" cy="17.3333" r="16.7556" stroke="#91C650" stroke-width="1.15556"/>
<path d="M15.717 12.815H20.9378C21.2242 12.815 21.4564 12.5828 21.4564 12.2964C21.4564 12.0099 21.2242 11.7778 20.9378 11.7778H15.717C15.4305 11.7778 15.1983 12.0099 15.1983 12.2964C15.1983 12.5828 15.4305 12.815 15.717 12.815Z" fill="#003D61"/>
<path d="M25.0238 10.1589L23.5309 11.6519V9.18464C23.5309 8.89818 23.2987 8.66602 23.0123 8.66602H13.6079C13.4707 8.66602 13.3378 8.72125 13.2411 8.81796L10.1295 11.9296C10.0312 12.0279 9.97754 12.1616 9.97754 12.2964V23.7752C9.97754 25.2051 11.1408 26.3684 12.5707 26.3684H23.0123C24.4421 26.3684 25.6054 25.2051 25.6054 23.7752V22.738C25.6054 22.4515 25.3732 22.2194 25.0868 22.2194H23.5309V16.0526L27.2242 12.3593C27.8307 11.7526 27.8307 10.7656 27.2242 10.1589C26.6162 9.55092 25.632 9.55092 25.0238 10.1589ZM13.0893 10.4368V11.7778H11.7483L13.0893 10.4368ZM14.1265 22.738V23.7752C14.1265 24.6331 13.4285 25.3311 12.5707 25.3311C11.7128 25.3311 11.0148 24.6331 11.0148 23.7752C11.0148 23.5849 11.0148 13.2333 11.0148 12.815H13.6079C13.8944 12.815 14.1265 12.5828 14.1265 12.2964V9.70326H22.4936V12.6891L21.3305 13.8522H12.5707C12.2842 13.8522 12.052 14.0844 12.052 14.3709C12.052 14.6573 12.2842 14.8895 12.5707 14.8895H20.2933L19.256 15.9267H12.5707C12.2842 15.9267 12.052 16.1589 12.052 16.4454C12.052 16.7318 12.2842 16.964 12.5707 16.964H18.2188L17.6633 17.5195C17.6064 17.5765 17.5635 17.6458 17.5381 17.7222L17.445 18.0012H12.5707C12.2842 18.0012 12.052 18.2334 12.052 18.5199C12.052 18.8063 12.2842 19.0385 12.5707 19.0385H17.0993L16.8434 19.8064L16.5739 20.0757H12.5707C12.2842 20.0757 12.052 20.3079 12.052 20.5943C12.052 20.8808 12.2842 21.113 12.5707 21.113H16.7168C16.8836 21.113 17.0193 21.0973 17.1555 20.961L17.5767 20.5398L19.6609 19.845C19.7372 19.8197 19.8067 19.7767 19.8637 19.7198L22.4936 17.0899V22.2194H14.6451C14.3587 22.2194 14.1265 22.4515 14.1265 22.738ZM19.7486 18.3679L19.2167 18.8998L18.1165 19.2666L18.4834 18.1664L19.0151 17.6346L19.7486 18.3679ZM24.5681 23.2566V23.7752C24.5681 24.6331 23.8702 25.3311 23.0123 25.3311H14.6439C14.9701 24.8974 15.1638 24.3584 15.1638 23.7752V23.2566H24.5681ZM25.3904 12.7261L20.4821 17.6346L19.7486 16.901L24.6569 11.9928L25.3904 12.7261ZM26.4907 11.6258L26.1237 11.9928L25.3904 11.2594L25.7572 10.8924C25.9595 10.6903 26.2885 10.6903 26.4907 10.8924C26.6929 11.0946 26.6929 11.4236 26.4907 11.6258Z" fill="#003D61"/>
</svg>
