<svg width="36" height="36" viewBox="0 0 36 36" fill="none" xmlns="http://www.w3.org/2000/svg">
<circle cx="18.0667" cy="17.7328" r="16.7556" stroke="#91C650" stroke-width="1.15556"/>
<path d="M26.7554 25.0651C26.7553 24.4403 26.3837 23.8785 25.8088 23.6339L21.3989 21.7577V20.7026C21.8061 20.1017 22.0622 19.3906 22.1129 18.6243H22.6428C23.6912 18.6243 24.5444 17.7711 24.5444 16.7227V15.1837C24.5444 14.2881 23.9218 13.5357 23.087 13.335C23.0492 11.8079 22.7037 10.6474 22.0341 9.7938C21.1744 8.69807 19.7851 8.14258 17.9044 8.14258C16.0237 8.14258 14.6344 8.69807 13.7747 9.79393C13.105 10.6474 12.7596 11.8079 12.7218 13.335C11.8869 13.5357 11.2644 14.2881 11.2644 15.1837V16.7227C11.2644 17.7711 12.1176 18.6243 13.166 18.6243H13.6958C13.7466 19.3906 14.0027 20.1017 14.4099 20.7026V21.7577L9.99998 23.6339C9.42504 23.8785 9.05336 24.4404 9.05336 25.0652L9.05322 25.326C9.05322 25.4636 9.10779 25.5956 9.20516 25.6928C9.3024 25.7901 9.43422 25.8448 9.57185 25.8448H26.2369C26.3746 25.8448 26.5065 25.7901 26.6038 25.6928C26.701 25.5955 26.7556 25.4635 26.7556 25.326L26.7554 25.0651ZM20.3622 22.1215C20.3626 22.1339 20.3916 23.3927 19.6481 24.167C19.2398 24.592 18.6532 24.8074 17.9044 24.8074C17.1583 24.8074 16.5731 24.5935 16.1651 24.1715C15.4127 23.3932 15.4463 22.1324 15.4466 22.1215C15.4469 22.1154 15.447 22.1093 15.447 22.1033C15.447 22.1011 15.4471 22.0989 15.4471 22.0966V21.769C16.1395 22.2671 16.9883 22.5607 17.9044 22.5607C18.8205 22.5607 19.6693 22.267 20.3616 21.769V22.0968C20.3616 22.0988 20.3618 22.101 20.3618 22.1031C20.3618 22.1092 20.3619 22.1153 20.3622 22.1215ZM21.0869 14.8879C21.0862 14.8983 21.0853 14.9087 21.0853 14.9194V17.8292L20.1003 18.486C19.787 18.6949 19.4222 18.8054 19.0454 18.8054H18.1682C17.8818 18.8054 17.6495 19.0376 17.6495 19.324C17.6495 19.6105 17.8818 19.8427 18.1682 19.8427H19.0454C19.6276 19.8427 20.1915 19.6719 20.6758 19.3489L20.9829 19.1441C20.6268 20.5113 19.3815 21.5236 17.9044 21.5236C16.1504 21.5236 14.7235 20.0966 14.7235 18.3427V14.9194C14.7235 14.9086 14.7226 14.8982 14.7219 14.8877V14.1782C14.7226 14.1677 14.7235 14.1573 14.7235 14.1465C14.7235 13.2543 14.9395 12.6649 15.3654 12.3949C16.0594 11.9549 17.273 12.3595 17.6813 12.5522C17.8217 12.6192 17.9858 12.6191 18.1266 12.5526C18.5358 12.3596 19.7493 11.955 20.4433 12.3949C20.8693 12.6649 21.0853 13.2543 21.0853 14.1465C21.0853 14.1571 21.0862 14.1675 21.0869 14.1779V14.8879ZM23.5071 15.1837V16.7227C23.5071 17.1993 23.1194 17.5871 22.6428 17.5871H22.1241V14.3193H22.6428C23.1194 14.3193 23.5071 14.7071 23.5071 15.1837ZM17.9044 9.17982C20.6508 9.17982 21.9406 10.4351 22.0461 13.236C21.901 12.443 21.5495 11.8664 20.9952 11.5166C19.9222 10.8393 18.4592 11.3024 17.9044 11.5207C17.3496 11.3024 15.8866 10.8393 14.8136 11.5166C14.2593 11.8664 13.9078 12.443 13.7627 13.236C13.8682 10.4351 15.158 9.17982 17.9044 9.17982ZM13.6846 17.5871H13.166C12.6894 17.5871 12.3016 17.1993 12.3016 16.7227V15.1837C12.3016 14.7071 12.6894 14.3193 13.166 14.3193H13.6846V17.5871ZM10.4061 24.5883L14.4693 22.8596C14.5604 23.4224 14.7864 24.1882 15.3407 24.8075H10.1591C10.214 24.7115 10.2997 24.6336 10.4061 24.5883ZM20.4681 24.8075C21.0223 24.1882 21.2484 23.4224 21.3395 22.8596L25.4027 24.5883C25.5091 24.6336 25.5946 24.7115 25.6497 24.8075H20.4681Z" fill="#003D61"/>
</svg>
