<svg width="36" height="36" viewBox="0 0 36 36" fill="none" xmlns="http://www.w3.org/2000/svg">
<circle cx="18.0667" cy="18.1332" r="16.7556" stroke="#91C650" stroke-width="1.15556"/>
<path d="M24.648 9.8125H11.851C11.073 9.8125 10.4399 10.4455 10.4399 11.2236V24.0206C10.4399 24.6708 10.8822 25.2194 11.4815 25.3823V26.9962C11.4815 27.2826 11.7137 27.5148 12.0001 27.5148H14.0833C14.3697 27.5148 14.6019 27.2826 14.6019 26.9962V25.4317H21.8972V26.9962C21.8972 27.2826 22.1294 27.5148 22.4158 27.5148H24.4989C24.7854 27.5148 25.0176 27.2826 25.0176 26.9962V25.3823C25.6169 25.2194 26.0591 24.6708 26.0591 24.0206V11.2236C26.0591 10.4455 25.4261 9.8125 24.648 9.8125ZM11.4772 18.1407H12.5231V20.2282H11.4772V18.1407ZM12.5231 17.1035H11.4772V15.016H12.5231V17.1035ZM13.5646 26.4776H12.5188V25.4317H13.5646V26.4776ZM23.9803 26.4776H22.9344V25.4317H23.9803V26.4776ZM25.0219 24.0206C25.0219 24.2268 24.8542 24.3945 24.6481 24.3945H11.851C11.6449 24.3945 11.4772 24.2267 11.4772 24.0206V21.2654H12.5231V22.8299C12.5231 23.1164 12.7553 23.3486 13.0417 23.3486H23.4574C23.7438 23.3486 23.976 23.1164 23.976 22.8299V12.4143C23.976 12.1278 23.7438 11.8956 23.4574 11.8956H13.0417C12.7553 11.8956 12.5231 12.1278 12.5231 12.4143V13.9788H11.4772V11.2236C11.4772 11.0175 11.6449 10.8497 11.851 10.8497H24.6481C24.8542 10.8497 25.0219 11.0175 25.0219 11.2236V24.0206ZM22.9388 16.0619H22.4122C22.1238 16.0619 21.8892 15.8273 21.8892 15.539C21.8892 15.2506 22.1238 15.016 22.4122 15.016H22.9388V16.0619ZM22.9388 20.2282H22.4122C22.1238 20.2282 21.8892 19.9936 21.8892 19.7052C21.8892 19.4169 22.1238 19.1823 22.4122 19.1823H22.9388V20.2282ZM22.9388 13.9788H22.4122C21.5519 13.9788 20.852 14.6787 20.852 15.539C20.852 16.3993 21.5519 17.0992 22.4122 17.0992H22.9388V18.145H22.4122C21.5519 18.145 20.852 18.8449 20.852 19.7052C20.852 20.5655 21.5519 21.2654 22.4122 21.2654H22.9388V22.3113H13.5603V12.9329H22.9388V13.9788Z" fill="#003D61"/>
<path d="M17.208 20.2239C18.6426 20.2239 19.8097 19.0567 19.8097 17.6221C19.8097 16.1875 18.6426 15.0203 17.208 15.0203C15.7734 15.0203 14.6062 16.1875 14.6062 17.6221C14.6062 19.0567 15.7734 20.2239 17.208 20.2239ZM17.208 16.0576C18.0706 16.0576 18.7725 16.7594 18.7725 17.6221C18.7725 18.303 18.3351 18.8834 17.7266 19.0979V17.6221C17.7266 17.3357 17.4944 17.1035 17.208 17.1035C16.9216 17.1035 16.6893 17.3357 16.6893 17.6221V19.0979C16.0809 18.8834 15.6435 18.3031 15.6435 17.6221C15.6435 16.7594 16.3453 16.0576 17.208 16.0576Z" fill="#003D61"/>
</svg>
