<svg width="27" height="28" viewBox="0 0 27 28" fill="none" xmlns="http://www.w3.org/2000/svg">
<path d="M19.1852 23.6549H19.1848V23.7549V24.7195C19.1848 25.0843 18.8878 25.3814 18.5229 25.3814H3.2856C2.92073 25.3814 2.62372 25.0843 2.62372 24.7195V3.2856C2.62372 2.9207 2.92072 2.62372 3.2856 2.62372H14.6136V6.33303C14.6136 6.80903 14.9995 7.19492 15.4755 7.19492H19.1848L19.1852 23.6549ZM17.8079 4.44202L17.8767 4.3695L17.8079 4.44202L17.8079 4.44208C18.3995 5.00363 18.7028 5.29158 18.8614 5.44353C18.8717 5.45335 18.8813 5.46257 18.8903 5.47125H16.3374V3.04571C16.9233 3.60225 17.381 4.0368 17.739 4.37659L17.8079 4.44202ZM12.428 5.4712H4.80932C4.33332 5.4712 3.94743 5.85708 3.94743 6.33308C3.94743 6.80908 4.33332 7.19497 4.80932 7.19497H12.428C12.904 7.19497 13.2899 6.80909 13.2899 6.33308C13.2899 5.85708 12.904 5.4712 12.428 5.4712ZM16.9992 10.0932H4.80932C4.33332 10.0932 3.94743 10.4791 3.94743 10.9551C3.94743 11.4311 4.33332 11.817 4.80932 11.817H16.9992C17.4752 11.817 17.8611 11.4311 17.8611 10.9551C17.8611 10.4791 17.4752 10.0932 16.9992 10.0932ZM16.9992 14.6644H4.80932C4.33332 14.6644 3.94743 15.0503 3.94743 15.5263C3.94743 16.0023 4.33332 16.3882 4.80932 16.3882H16.9992C17.4752 16.3882 17.8611 16.0023 17.8611 15.5263C17.8611 15.0503 17.4752 14.6644 16.9992 14.6644ZM12.8851 19.2356H4.80932C4.33332 19.2356 3.94743 19.6215 3.94743 20.0975C3.94743 20.5735 4.33332 20.9594 4.80932 20.9594H12.8851C13.3611 20.9594 13.747 20.5735 13.747 20.0975C13.747 19.6215 13.3611 19.2356 12.8851 19.2356ZM18.523 27.1051C19.8385 27.1051 20.9086 26.0349 20.9086 24.7195L20.9085 6.03473C20.9085 5.38362 20.6379 4.75346 20.1659 4.30513L17.2718 1.55601C16.8267 1.13305 16.243 0.9 15.6289 0.9H3.2856C1.97012 0.9 0.9 1.97009 0.9 3.2856V24.7195C0.9 26.0349 1.97011 27.1051 3.2856 27.1051H18.523Z" fill="#ABAFB1"/>
<path d="M15.3453 20.8739L22.5722 13.647C22.6119 13.6074 22.6762 13.6074 22.7159 13.647L25.1222 16.0534C25.1619 16.093 25.1619 16.1574 25.1222 16.197L17.8953 23.4239C17.8773 23.4419 17.8531 23.4525 17.8276 23.4536L15.3196 23.5552C15.2603 23.5577 15.2116 23.5089 15.214 23.4496L15.3157 20.9416C15.3167 20.9161 15.3273 20.8919 15.3453 20.8739Z" fill="#ABAFB1" stroke="#ABAFB1" stroke-width="0.2"/>
</svg>
