<svg width="30" height="30" viewBox="0 0 30 30" fill="none" xmlns="http://www.w3.org/2000/svg">
<rect width="30" height="30" rx="15" fill="#91C650"/>

<path d="M21.514 8.40159C20.8623 8.14264 20.0094 8 19.1123 8C18.2152 8 17.3623 8.14264 16.7106 8.40159C15.7139 8.79771 15.4727 9.34747 15.432 9.70385H15.4248V14.6262C15.2202 14.6106 15.0113 14.6024 14.7998 14.6024C14.5883 14.6024 14.3794 14.6106 14.1748 14.6262V12.1379H14.1676C14.1269 11.7816 13.8857 11.2318 12.889 10.8357C12.2373 10.5767 11.3844 10.4341 10.4873 10.4341C9.59018 10.4341 8.73727 10.5767 8.08562 10.8357C6.96687 11.2803 6.7998 11.9187 6.7998 12.2596V19.4402C6.7998 19.7811 6.96684 20.4195 8.08562 20.8641C8.73727 21.1231 9.59018 21.2657 10.4873 21.2657C10.6996 21.2657 10.909 21.2575 11.1145 21.2419C11.137 21.5946 11.3494 22.1817 12.3981 22.5984C13.0498 22.8574 13.9027 23 14.7998 23C15.6969 23 16.5498 22.8574 17.2015 22.5984C18.3202 22.1538 18.4873 21.5154 18.4873 21.1744V21.1508C18.6921 21.1663 18.9007 21.1744 19.1123 21.1744C20.0094 21.1744 20.8623 21.0318 21.514 20.7729C22.6328 20.3283 22.7998 19.6899 22.7998 19.3489V9.82556C22.7998 9.48457 22.6327 8.84618 21.514 8.40159ZM19.1123 9.21704C20.5571 9.21704 21.3906 9.62919 21.5372 9.82556C21.3906 10.0219 20.5571 10.4341 19.1123 10.4341C17.6675 10.4341 16.8341 10.0219 16.6874 9.82556C16.8341 9.62919 17.6675 9.21704 19.1123 9.21704ZM14.7997 15.8195C16.2439 15.8195 17.0773 16.2313 17.2245 16.4277C17.2233 16.4293 17.2223 16.4308 17.221 16.4324C17.2187 16.4354 17.2161 16.4385 17.2135 16.4415C17.2104 16.4451 17.2072 16.4486 17.2038 16.4523C17.2008 16.4554 17.1976 16.4587 17.1943 16.4619C17.1905 16.4657 17.1865 16.4695 17.1823 16.4733C17.1786 16.4766 17.1749 16.48 17.171 16.4834C17.1664 16.4874 17.1615 16.4914 17.1565 16.4954C17.1522 16.4989 17.148 16.5024 17.1434 16.5059C17.138 16.5101 17.1323 16.5143 17.1265 16.5185C17.1216 16.5221 17.1168 16.5257 17.1116 16.5293C17.1055 16.5337 17.0989 16.5381 17.0922 16.5425C17.0868 16.5461 17.0815 16.5498 17.0757 16.5534C17.0686 16.558 17.0611 16.5626 17.0536 16.5672C17.0477 16.5709 17.0419 16.5745 17.0356 16.5782C17.0276 16.583 17.0191 16.5878 17.0107 16.5926C17.0043 16.5962 16.9981 16.5998 16.9914 16.6035C16.9823 16.6084 16.9727 16.6135 16.9632 16.6185C16.9565 16.622 16.95 16.6256 16.943 16.6291C16.9325 16.6345 16.9214 16.6399 16.9104 16.6453C16.9037 16.6486 16.8974 16.6518 16.8905 16.655C16.8767 16.6616 16.8622 16.6682 16.8477 16.6748C16.8431 16.6769 16.8387 16.6789 16.8341 16.681C16.8145 16.6897 16.7942 16.6984 16.7732 16.7071C16.7692 16.7088 16.7648 16.7105 16.7608 16.7121C16.7437 16.7191 16.7264 16.7261 16.7084 16.733C16.7006 16.736 16.6924 16.739 16.6845 16.742C16.6697 16.7476 16.655 16.7531 16.6396 16.7587C16.6302 16.7621 16.6203 16.7654 16.6106 16.7688C16.5961 16.7739 16.5817 16.779 16.5667 16.7839C16.5562 16.7874 16.5454 16.7909 16.5347 16.7944C16.5199 16.7992 16.5051 16.804 16.4898 16.8087C16.4784 16.8122 16.4666 16.8157 16.4551 16.8192C16.4398 16.8238 16.4246 16.8284 16.409 16.8329C16.3967 16.8364 16.3841 16.8398 16.3716 16.8433C16.3559 16.8477 16.3402 16.852 16.3241 16.8563C16.311 16.8597 16.2977 16.8631 16.2844 16.8665C16.2681 16.8706 16.2518 16.8748 16.2352 16.8788C16.2214 16.8822 16.2074 16.8854 16.1934 16.8887C16.1765 16.8926 16.1595 16.8966 16.1422 16.9004C16.1278 16.9036 16.1132 16.9067 16.0985 16.9098C16.081 16.9136 16.0633 16.9172 16.0454 16.9208C16.0303 16.9238 16.015 16.9268 15.9996 16.9298C15.9815 16.9332 15.9631 16.9367 15.9446 16.94C15.9288 16.9428 15.913 16.9456 15.897 16.9484C15.8781 16.9516 15.859 16.9547 15.8397 16.9578C15.8234 16.9604 15.807 16.963 15.7904 16.9656C15.7708 16.9685 15.7509 16.9714 15.7309 16.9742C15.7141 16.9765 15.6972 16.9789 15.6801 16.9812C15.6596 16.9839 15.6388 16.9864 15.6179 16.9889C15.6006 16.991 15.5833 16.9931 15.5658 16.9951C15.5445 16.9975 15.5227 16.9997 15.501 17.0019C15.4833 17.0037 15.4656 17.0056 15.4476 17.0072C15.4253 17.0093 15.4025 17.0112 15.3798 17.0131C15.3618 17.0145 15.3439 17.0161 15.3257 17.0175C15.302 17.0192 15.2778 17.0207 15.2536 17.0222C15.2357 17.0234 15.2181 17.0246 15.1999 17.0256C15.1743 17.027 15.1481 17.0281 15.122 17.0293C15.1047 17.0301 15.0878 17.031 15.0703 17.0316C15.0411 17.0327 15.0113 17.0334 14.9816 17.0341C14.9666 17.0345 14.952 17.035 14.9369 17.0353C14.8918 17.0361 14.8461 17.0366 14.7997 17.0366C14.7534 17.0366 14.7077 17.0361 14.6626 17.0353C14.6475 17.035 14.6329 17.0345 14.6179 17.0341C14.5882 17.0334 14.5584 17.0327 14.5291 17.0316C14.5117 17.031 14.4947 17.0301 14.4775 17.0293C14.4514 17.0281 14.4252 17.027 14.3996 17.0256C14.3814 17.0246 14.3637 17.0234 14.3458 17.0222C14.3217 17.0207 14.2975 17.0192 14.2738 17.0175C14.2556 17.0161 14.2377 17.0145 14.2197 17.0131C14.197 17.0112 14.1742 17.0093 14.1519 17.0072C14.1339 17.0056 14.1162 17.0037 14.0985 17.0019C14.0767 16.9997 14.055 16.9975 14.0337 16.9951C14.0161 16.9931 13.9989 16.991 13.9816 16.9889C13.9607 16.9864 13.9399 16.9838 13.9194 16.9812C13.9023 16.9789 13.8854 16.9765 13.8686 16.9742C13.8486 16.9714 13.8286 16.9685 13.8091 16.9656C13.7925 16.9631 13.7761 16.9604 13.7598 16.9578C13.7405 16.9547 13.7213 16.9516 13.7025 16.9484C13.6865 16.9456 13.6706 16.9428 13.6549 16.94C13.6364 16.9367 13.618 16.9332 13.5998 16.9298C13.5844 16.9268 13.5692 16.9238 13.5541 16.9208C13.5362 16.9172 13.5185 16.9136 13.501 16.9098C13.4863 16.9067 13.4717 16.9036 13.4572 16.9004C13.44 16.8966 13.423 16.8927 13.4061 16.8887C13.3921 16.8854 13.3781 16.8822 13.3643 16.8788C13.3476 16.8748 13.3313 16.8706 13.3151 16.8665C13.3018 16.8631 13.2885 16.8597 13.2754 16.8563C13.2593 16.852 13.2436 16.8477 13.2279 16.8433C13.2154 16.8398 13.2028 16.8364 13.1905 16.8329C13.1749 16.8284 13.1596 16.8238 13.1444 16.8192C13.1328 16.8157 13.121 16.8122 13.1097 16.8087C13.0944 16.804 13.0796 16.7992 13.0648 16.7944C13.0541 16.7909 13.0432 16.7874 13.0328 16.7839C13.0178 16.7789 13.0034 16.7738 12.9889 16.7688C12.9792 16.7654 12.9693 16.7621 12.9598 16.7587C12.9445 16.7532 12.9298 16.7476 12.915 16.742C12.9071 16.739 12.8988 16.7361 12.8911 16.733C12.8731 16.7261 12.8558 16.7191 12.8387 16.7121C12.8346 16.7104 12.8303 16.7088 12.8263 16.7071C12.8053 16.6985 12.7851 16.6897 12.7655 16.681C12.7608 16.6789 12.7565 16.6769 12.7518 16.6748C12.7372 16.6682 12.7228 16.6616 12.709 16.655C12.7021 16.6518 12.6958 16.6486 12.6891 16.6453C12.6781 16.6399 12.667 16.6345 12.6565 16.6291C12.6496 16.6256 12.643 16.622 12.6363 16.6185C12.6268 16.6135 12.6172 16.6084 12.6081 16.6035C12.6015 16.5998 12.5953 16.5962 12.5889 16.5926C12.5804 16.5878 12.5719 16.583 12.5639 16.5782C12.5577 16.5745 12.5519 16.5709 12.5459 16.5672C12.5384 16.5626 12.5309 16.558 12.5238 16.5534C12.5181 16.5498 12.5127 16.5461 12.5073 16.5425C12.5007 16.5381 12.4941 16.5337 12.4879 16.5293C12.4827 16.5257 12.4779 16.5221 12.473 16.5185C12.4672 16.5143 12.4615 16.5101 12.4561 16.5059C12.4516 16.5024 12.4473 16.4989 12.443 16.4954C12.4381 16.4914 12.4332 16.4874 12.4286 16.4834C12.4246 16.48 12.4209 16.4767 12.4173 16.4733C12.4131 16.4695 12.409 16.4657 12.4052 16.4619C12.4019 16.4587 12.3987 16.4554 12.3957 16.4523C12.3923 16.4486 12.3891 16.4451 12.3861 16.4415C12.3834 16.4385 12.3808 16.4354 12.3785 16.4324C12.3772 16.4308 12.3762 16.4293 12.375 16.4277C12.5222 16.2313 13.3555 15.8195 14.7997 15.8195ZM10.4873 11.6511C11.9321 11.6511 12.7656 12.0633 12.9122 12.2596C12.7656 12.456 11.9321 12.8682 10.4873 12.8682C9.04249 12.8682 8.20905 12.456 8.0624 12.2596C8.20905 12.0633 9.04249 11.6511 10.4873 11.6511ZM11.1123 20.0207C10.9092 20.0391 10.7004 20.0487 10.4873 20.0487C8.99334 20.0487 8.15305 19.608 8.0498 19.4209V18.5065C8.06184 18.5115 8.07334 18.5165 8.08562 18.5214C8.73727 18.7803 9.59018 18.9229 10.4873 18.9229C10.6989 18.9229 10.9075 18.9147 11.1123 18.8992V20.0207ZM11.1123 16.5193V17.6779C10.9092 17.6963 10.7004 17.7059 10.4873 17.7059C8.99059 17.7059 8.15052 17.2638 8.0498 17.0773V16.0725C8.06184 16.0774 8.07334 16.0824 8.08562 16.0873C8.73727 16.3462 9.59018 16.4888 10.4873 16.4888C10.6991 16.4888 10.9082 16.4806 11.113 16.4651C11.1136 16.4825 11.1148 16.5006 11.1164 16.5193H11.1123ZM10.4873 15.2718C8.99059 15.2718 8.15052 14.8297 8.0498 14.6432V13.6688C8.06184 13.6737 8.07334 13.6787 8.08562 13.6836C8.73727 13.9426 9.59018 14.0852 10.4873 14.0852C11.3844 14.0852 12.2373 13.9426 12.889 13.6836C12.9012 13.6787 12.9128 13.6737 12.9248 13.6688V14.6432C12.8241 14.8297 11.984 15.2718 10.4873 15.2718ZM17.2373 21.1552C17.1341 21.3423 16.2938 21.783 14.7998 21.783C13.3058 21.783 12.4656 21.3423 12.3623 21.1552V20.1799C12.3743 20.1849 12.3858 20.1899 12.3981 20.1948C13.0498 20.4537 13.9027 20.5963 14.7998 20.5963C15.6969 20.5963 16.5498 20.4537 17.2015 20.1948C17.2137 20.1899 17.2253 20.1849 17.2373 20.1799V21.1552ZM17.2373 18.7507C17.1366 18.9372 16.2965 19.3793 14.7998 19.3793C13.3031 19.3793 12.463 18.9372 12.3623 18.7507V17.8372C12.3743 17.8421 12.3858 17.8471 12.3981 17.852C13.0498 18.1109 13.9027 18.2535 14.7998 18.2535C15.6969 18.2535 16.5498 18.1109 17.2015 17.852C17.2137 17.8471 17.2253 17.8421 17.2373 17.8371V18.7507ZM21.5498 19.3296C21.4466 19.5167 20.6063 19.9574 19.1123 19.9574C18.8992 19.9574 18.6904 19.9478 18.4873 19.9294V18.8083C18.6923 18.8238 18.9011 18.8316 19.1123 18.8316C20.0094 18.8316 20.8623 18.689 21.514 18.4301C21.5262 18.4252 21.5378 18.4202 21.5498 18.4152V19.3296ZM21.5498 16.986C21.4491 17.1725 20.609 17.6146 19.1123 17.6146C18.8996 17.6146 18.6907 17.6051 18.4873 17.5867V16.5193H18.4832C18.4848 16.5006 18.486 16.4825 18.4866 16.4651C18.6914 16.4806 18.9005 16.4888 19.1123 16.4888C20.0094 16.4888 20.8623 16.3462 21.514 16.0873C21.5262 16.0824 21.5378 16.0774 21.5498 16.0724V16.986ZM21.5498 14.6432C21.4491 14.8297 20.609 15.2718 19.1123 15.2718C17.6156 15.2718 16.7755 14.8297 16.6748 14.6432V13.6384C16.6868 13.6433 16.6983 13.6483 16.7106 13.6532C17.3623 13.9122 18.2152 14.0548 19.1123 14.0548C20.0094 14.0548 20.8623 13.9121 21.514 13.6532C21.5262 13.6483 21.5378 13.6433 21.5498 13.6384V14.6432ZM21.5498 12.2091C21.4491 12.3956 20.609 12.8377 19.1123 12.8377C17.6156 12.8377 16.7755 12.3956 16.6748 12.2091V11.2347C16.6868 11.2396 16.6983 11.2446 16.7106 11.2495C17.3623 11.5085 18.2152 11.6511 19.1123 11.6511C20.0094 11.6511 20.8623 11.5085 21.514 11.2495C21.5262 11.2447 21.5378 11.2396 21.5498 11.2347V12.2091Z" fill="white" stroke="#91C650" stroke-width="0.4"/>
</svg>
