<svg width="30" height="30" viewBox="0 0 30 30" fill="none" xmlns="http://www.w3.org/2000/svg">
<rect width="30" height="30" rx="15" fill="#E2292C"/>
<path d="M5.27945 18C5.21279 18 5.15612 17.9767 5.10945 17.93C5.06279 17.8833 5.03945 17.8267 5.03945 17.76V16.75C5.03945 16.6833 5.06279 16.6267 5.10945 16.58C5.15612 16.5333 5.21279 16.51 5.27945 16.51H6.28945C6.35612 16.51 6.41279 16.5333 6.45945 16.58C6.50612 16.6267 6.52945 16.6833 6.52945 16.75V17.76C6.52945 17.8267 6.50612 17.8833 6.45945 17.93C6.41945 17.9767 6.36279 18 6.28945 18H5.27945ZM8.035 19.9C7.96833 19.9 7.91167 19.8767 7.865 19.83C7.81833 19.79 7.795 19.7333 7.795 19.66V13.04C7.795 12.9667 7.81833 12.91 7.865 12.87C7.91167 12.8233 7.96833 12.8 8.035 12.8H8.835C8.90833 12.8 8.96833 12.8233 9.015 12.87C9.06167 12.9167 9.085 12.9733 9.085 13.04V13.44C9.43833 12.9467 9.96833 12.7 10.675 12.7C11.3483 12.7 11.865 12.9133 12.225 13.34C12.585 13.76 12.7783 14.3267 12.805 15.04C12.8117 15.12 12.815 15.24 12.815 15.4C12.815 15.56 12.8117 15.68 12.805 15.76C12.785 16.46 12.5917 17.0267 12.225 17.46C11.865 17.8867 11.3483 18.1 10.675 18.1C10.0083 18.1 9.49833 17.8633 9.145 17.39V19.66C9.145 19.7333 9.12167 19.79 9.075 19.83C9.035 19.8767 8.97833 19.9 8.905 19.9H8.035ZM10.295 17.02C11.0083 17.02 11.3883 16.58 11.435 15.7C11.4417 15.6333 11.445 15.5333 11.445 15.4C11.445 15.2667 11.4417 15.1667 11.435 15.1C11.3883 14.22 11.0083 13.78 10.295 13.78C9.915 13.78 9.63167 13.9033 9.445 14.15C9.25833 14.3967 9.15833 14.6967 9.145 15.05C9.13833 15.13 9.135 15.2567 9.135 15.43C9.135 15.6033 9.13833 15.7333 9.145 15.82C9.15833 16.1533 9.26167 16.4367 9.455 16.67C9.64833 16.9033 9.92833 17.02 10.295 17.02ZM15.8576 18.1C15.1842 18.1 14.6676 17.8867 14.3076 17.46C13.9476 17.0267 13.7509 16.45 13.7176 15.73L13.7076 15.4L13.7176 15.07C13.7442 14.3633 13.9376 13.7933 14.2976 13.36C14.6642 12.92 15.1842 12.7 15.8576 12.7C16.4976 12.7 17.0076 12.92 17.3876 13.36V11.14C17.3876 11.0667 17.4109 11.01 17.4576 10.97C17.5042 10.9233 17.5609 10.9 17.6276 10.9H18.4976C18.5709 10.9 18.6276 10.9233 18.6676 10.97C18.7142 11.01 18.7376 11.0667 18.7376 11.14V17.76C18.7376 17.8267 18.7142 17.8833 18.6676 17.93C18.6276 17.9767 18.5709 18 18.4976 18H17.6876C17.6209 18 17.5642 17.9767 17.5176 17.93C17.4709 17.8833 17.4476 17.8267 17.4476 17.76V17.39C17.0809 17.8633 16.5509 18.1 15.8576 18.1ZM16.2376 17.02C16.6176 17.02 16.8976 16.9 17.0776 16.66C17.2642 16.4133 17.3676 16.11 17.3876 15.75C17.3942 15.67 17.3976 15.5433 17.3976 15.37C17.3976 15.19 17.3942 15.06 17.3876 14.98C17.3742 14.6467 17.2709 14.3633 17.0776 14.13C16.8842 13.8967 16.6042 13.78 16.2376 13.78C15.5242 13.78 15.1442 14.22 15.0976 15.1L15.0876 15.4L15.0976 15.7C15.1442 16.58 15.5242 17.02 16.2376 17.02ZM20.8702 18C20.8035 18 20.7468 17.9767 20.7002 17.93C20.6535 17.8833 20.6302 17.8267 20.6302 17.76V13.87H19.8202C19.7535 13.87 19.6968 13.8467 19.6502 13.8C19.6035 13.7533 19.5802 13.6967 19.5802 13.63V13.04C19.5802 12.9733 19.6035 12.9167 19.6502 12.87C19.6968 12.8233 19.7535 12.8 19.8202 12.8H20.6302V12.4C20.6302 11.7933 20.7935 11.3433 21.1202 11.05C21.4468 10.75 21.9402 10.6 22.6002 10.6H23.2902C23.3568 10.6 23.4135 10.6233 23.4602 10.67C23.5068 10.7167 23.5302 10.7733 23.5302 10.84V11.43C23.5302 11.4967 23.5068 11.5533 23.4602 11.6C23.4135 11.6467 23.3568 11.67 23.2902 11.67H22.6502C22.3902 11.67 22.2068 11.7333 22.1002 11.86C21.9935 11.9867 21.9402 12.1833 21.9402 12.45V12.8H23.1902C23.2568 12.8 23.3135 12.8233 23.3602 12.87C23.4068 12.9167 23.4302 12.9733 23.4302 13.04V13.63C23.4302 13.6967 23.4068 13.7533 23.3602 13.8C23.3135 13.8467 23.2568 13.87 23.1902 13.87H21.9402V17.76C21.9402 17.8267 21.9168 17.8833 21.8702 17.93C21.8302 17.9767 21.7735 18 21.7002 18H20.8702Z" fill="white"/>
</svg>
