<svg width="26" height="26" viewBox="0 0 26 26" fill="none" xmlns="http://www.w3.org/2000/svg">
<path d="M13.4443 25.3008H11.8564C10.5722 25.3008 9.52728 24.2559 9.52728 22.9717V22.4345C8.98128 22.26 8.45081 22.0398 7.94118 21.7761L7.56049 22.1568C6.63844 23.08 5.16146 23.0529 4.2662 22.1565L3.14392 21.0342C2.24708 20.1384 2.22128 18.6619 3.14421 17.7399L3.52462 17.3595C3.26088 16.8499 3.04074 16.3195 2.86625 15.7735H2.3291C1.04489 15.7735 0 14.7286 0 13.4444V11.8564C0 10.5722 1.04489 9.52732 2.32915 9.52732H2.8663C3.04079 8.98128 3.26093 8.45086 3.52467 7.94123L3.14397 7.56058C2.22158 6.63918 2.24703 5.16255 3.14426 4.26629L4.26664 3.14397C5.16398 2.24539 6.64061 2.22296 7.56088 3.14426L7.94123 3.52462C8.45086 3.26093 8.98133 3.04074 9.52732 2.86625V2.3291C9.52732 1.04484 10.5722 0 11.8565 0H13.4444C14.7286 0 15.7735 1.04484 15.7735 2.3291V2.8663C16.3194 3.04074 16.8499 3.26093 17.3595 3.52467L17.7402 3.14397C18.6623 2.22079 20.1393 2.24787 21.0345 3.14431L22.1568 4.26654C23.0537 5.1624 23.0795 6.63889 22.1565 7.56083L21.7761 7.94123C22.0398 8.45086 22.26 8.98123 22.4345 9.52732H22.9716C24.2559 9.52732 25.3008 10.5722 25.3008 11.8564V13.4444C25.3008 14.7286 24.2559 15.7735 22.9716 15.7735H22.4345C22.26 16.3195 22.0398 16.8499 21.7761 17.3595L22.1568 17.7402C23.0792 18.6616 23.0538 20.1383 22.1565 21.0345L21.0341 22.1569C20.1368 23.0554 18.6602 23.0779 17.7399 22.1566L17.3595 21.7762C16.8499 22.0399 16.3194 22.2601 15.7735 22.4346V22.9718C15.7735 24.2559 14.7286 25.3008 13.4443 25.3008ZM8.189 20.2194C8.89698 20.6381 9.65897 20.9544 10.4538 21.1595C10.7811 21.244 11.0098 21.5392 11.0098 21.8772V22.9717C11.0098 23.4385 11.3897 23.8183 11.8565 23.8183H13.4444C13.9112 23.8183 14.291 23.4385 14.291 22.9717V21.8772C14.291 21.5392 14.5197 21.244 14.8471 21.1595C15.6419 20.9544 16.4038 20.6381 17.1118 20.2194C17.4031 20.0471 17.774 20.094 18.0133 20.3333L18.7885 21.1086C19.1228 21.4432 19.6595 21.4354 19.9856 21.1089L21.1087 19.9859C21.4339 19.661 21.4448 19.1242 21.109 18.7888L20.3334 18.0132C20.0941 17.7739 20.0473 17.403 20.2195 17.1118C20.6382 16.4038 20.9544 15.6419 21.1596 14.847C21.2441 14.5197 21.5393 14.291 21.8773 14.291H22.9717C23.4385 14.291 23.8184 13.9112 23.8184 13.4444V11.8565C23.8184 11.3897 23.4385 11.0098 22.9717 11.0098H21.8773C21.5392 11.0098 21.2441 10.7811 21.1596 10.4539C20.9544 9.65902 20.6381 8.89703 20.2195 8.1891C20.0473 7.89785 20.0941 7.52693 20.3334 7.28766L21.1087 6.51238C21.4438 6.17764 21.435 5.64099 21.109 5.31529L19.986 4.19232C19.6605 3.86637 19.1236 3.85684 18.7889 4.19202L18.0134 4.9676C17.7741 5.20692 17.4031 5.25377 17.1119 5.0815C16.4039 4.66281 15.6419 4.3465 14.8471 4.14137C14.5198 4.05692 14.2911 3.76171 14.2911 3.42366V2.3291C14.2911 1.86228 13.9112 1.48247 13.4444 1.48247H11.8565C11.3897 1.48247 11.0098 1.86228 11.0098 2.3291V3.42356C11.0098 3.76161 10.7811 4.05682 10.4538 4.14127C9.65902 4.3464 8.89703 4.66271 8.18905 5.0814C7.8977 5.25362 7.52683 5.20677 7.28756 4.9675L6.51233 4.19222C6.17808 3.85758 5.64128 3.86534 5.31529 4.19187L4.19222 5.31489C3.86697 5.63975 3.8561 6.17655 4.19192 6.51199L4.9675 7.28756C5.20677 7.52683 5.25362 7.89775 5.0814 8.189C4.66271 8.89693 4.34645 9.65892 4.14132 10.4538C4.05682 10.7811 3.76161 11.0097 3.42361 11.0097H2.32915C1.86233 11.0098 1.48247 11.3896 1.48247 11.8564V13.4444C1.48247 13.9112 1.86233 14.291 2.32915 14.291H3.42356C3.76161 14.291 4.05677 14.5197 4.14127 14.847C4.3464 15.6418 4.66271 16.4038 5.08136 17.1117C5.25357 17.403 5.20672 17.7739 4.96745 18.0132L4.19217 18.7884C3.85703 19.1232 3.86578 19.6598 4.19187 19.9855L5.31484 21.1085C5.64034 21.4345 6.1772 21.444 6.51194 21.1088L7.28747 20.3332C7.46378 20.157 7.83059 20.0074 8.189 20.2194Z" fill="white"/>
<path d="M12.6503 18.1553C9.61485 18.1553 7.14541 15.6858 7.14541 12.6504C7.14541 9.61502 9.61485 7.14552 12.6503 7.14552C15.6858 7.14552 18.1552 9.61502 18.1552 12.6504C18.1552 15.6858 15.6858 18.1553 12.6503 18.1553ZM12.6503 8.62799C10.4323 8.62799 8.62787 10.4325 8.62787 12.6504C8.62787 14.8684 10.4323 16.6728 12.6503 16.6728C14.8683 16.6728 16.6727 14.8684 16.6727 12.6504C16.6727 10.4325 14.8683 8.62799 12.6503 8.62799Z" fill="white"/>
</svg>
