<svg width="18" height="16" viewBox="0 0 18 16" fill="none" xmlns="http://www.w3.org/2000/svg">
<path d="M4.28685 15.4949C4.22624 15.4949 4.16564 15.4763 4.1147 15.4393C4.02452 15.3741 3.97943 15.2638 3.99846 15.1547L4.90343 9.90982L1.07073 6.19582C0.991092 6.11839 0.9624 6.00283 0.996654 5.89775C1.0312 5.79237 1.12284 5.71553 1.23322 5.69952L6.52949 4.93424L8.89833 0.162427C8.94751 0.0628751 9.0494 0 9.16065 0C9.2722 0 9.37408 0.0628751 9.42298 0.162427L11.7915 4.93424L17.0881 5.69952C17.1985 5.71553 17.2898 5.79208 17.3246 5.89775C17.3589 6.00283 17.3305 6.11868 17.2506 6.19582L13.4179 9.9104L14.3225 15.1549C14.3413 15.2641 14.2962 15.3744 14.2063 15.4396C14.1161 15.5054 13.9964 15.5139 13.8977 15.4618L9.16065 12.9858L4.42299 15.4618C4.38024 15.4839 4.3334 15.4949 4.28685 15.4949Z" fill="#FFA546"/>
</svg>
