<svg width="17" height="16" fill-rule="nonzero" viewBox="0 0 17 16" fill="none"  xmlns="http://www.w3.org/2000/svg">
<path  d="M3.94798 15.4949C3.88737 15.4949 3.82677 15.4763 3.77583 15.4393C3.68565 15.3741 3.64057 15.2638 3.6596 15.1547L4.56456 9.90982L0.731859 6.19582C0.652224 6.11839 0.623533 6.00283 0.657787 5.89775C0.692334 5.79237 0.783973 5.71552 0.894348 5.69951L6.19063 4.93424L8.55946 0.162427C8.60865 0.0628751 8.71053 0 8.82178 0C8.93333 0 9.03522 0.0628751 9.08411 0.162427L11.4526 4.93424L16.7492 5.69951C16.8596 5.71552 16.9509 5.79208 16.9858 5.89775C17.02 6.00283 16.9916 6.11868 16.9117 6.19582L13.079 9.9104L13.9837 15.1549C14.0024 15.2641 13.9573 15.3744 13.8674 15.4396C13.7773 15.5054 13.6575 15.5139 13.5589 15.4618L8.82178 12.9858L4.08412 15.4618C4.04137 15.4839 3.99453 15.4949 3.94798 15.4949ZM1.56539 6.19058L5.08336 9.6001C5.15216 9.66676 5.18378 9.7634 5.16738 9.85771L4.33678 14.6717L8.68565 12.3989C8.77084 12.3541 8.87243 12.3541 8.95822 12.3989L13.3065 14.6717L12.4762 9.85771C12.4598 9.7634 12.4914 9.66705 12.5602 9.6001L16.0782 6.19058L11.2167 5.48818C11.1212 5.4745 11.039 5.41483 10.9962 5.32896L8.82178 0.94924L6.64735 5.32925C6.60461 5.41512 6.52234 5.47479 6.4269 5.48848L1.56539 6.19058Z" fill="#06081C" fill-opacity="0.35"/>
</svg>
