<svg
	 xmlns="http://www.w3.org/2000/svg"  x="0px" y="0px" width="25px" height="27px"
	 viewBox="0 0 25 27" style="enable-background:new 0 0 25 27;" xml:space="preserve">
<path fill="#ABAFB1" d="M19,7.5c-0.3-0.3-0.9-0.3-1.2,0 M19,7.5c0.3,0.3,0.3,0.9,0,1.2 M17.8,7.5l-9.9,9.9c-0.3,0.3-0.3,0.9,0,1.2
	c0.2,0.2,0.4,0.2,0.6,0.2c0.2,0,0.4-0.1,0.6-0.2c0,0,0,0,0,0L19,8.7 M19,8.7L19,8.7 M19,8.7L19,8.7 M10.5,6.2C8.9,6.2,7.6,7.4,7.6,9
	c0,1.6,1.3,2.8,2.8,2.8c1.6,0,2.8-1.3,2.8-2.8C13.3,7.4,12,6.2,10.5,6.2z M10.5,10.2c-0.6,0-1.1-0.5-1.1-1.1c0-0.6,0.5-1.1,1.1-1.1
	c0.6,0,1.1,0.5,1.1,1.1C11.6,9.6,11.1,10.2,10.5,10.2z M16.5,14.2c-1.6,0-2.8,1.3-2.8,2.8c0,1.6,1.3,2.8,2.8,2.8
	c1.6,0,2.8-1.3,2.8-2.8C19.3,15.4,18,14.2,16.5,14.2z M16.5,18.2c-0.6,0-1.1-0.5-1.1-1.1c0-0.6,0.5-1.1,1.1-1.1
	c0.6,0,1.1,0.5,1.1,1.1C17.6,17.6,17.1,18.2,16.5,18.2z"/>
<path fill="#ABAFB1" d="M7.9,18.6c0.3,0.3,0.9,0.3,1.2,0 M7.9,18.6c-0.3-0.3-0.3-0.9,0-1.2 M9.1,18.6L19,8.7c0.3-0.3,0.3-0.9,0-1.2
	c-0.2-0.2-0.4-0.2-0.6-0.2c-0.2,0-0.4,0.1-0.6,0.2c0,0,0,0,0,0l-9.9,9.9 M7.9,17.4L7.9,17.4 M7.9,17.4L7.9,17.4 M16.5,19.9
	c1.6,0,2.8-1.3,2.8-2.8c0-1.6-1.3-2.8-2.8-2.8c-1.6,0-2.8,1.3-2.8,2.8C13.6,18.6,14.9,19.9,16.5,19.9z M16.5,15.9
	c0.6,0,1.1,0.5,1.1,1.1c0,0.6-0.5,1.1-1.1,1.1c-0.6,0-1.1-0.5-1.1-1.1C15.3,16.4,15.8,15.9,16.5,15.9z M10.5,11.9
	c1.6,0,2.8-1.3,2.8-2.8c0-1.6-1.3-2.8-2.8-2.8C8.9,6.2,7.6,7.4,7.6,9C7.6,10.6,8.9,11.9,10.5,11.9z M10.5,7.9c0.6,0,1.1,0.5,1.1,1.1
	c0,0.6-0.5,1.1-1.1,1.1c-0.6,0-1.1-0.5-1.1-1.1C9.3,8.4,9.8,7.9,10.5,7.9z"/>
<path fill="#ABAFB1" d="M23.8,13.3c-0.1-0.2-0.1-0.5,0-0.7l1-2c0.5-1.1,0.1-2.4-1-3l-2-1c-0.2-0.1-0.4-0.3-0.4-0.5L21,3.9
	c-0.2-1.2-1.3-2-2.6-1.9l-2.2,0.3c-0.2,0-0.5,0-0.6-0.2l-1.6-1.5c-0.9-0.9-2.3-0.9-3.2,0L9.3,2.2C9.1,2.3,8.9,2.4,8.7,2.4L6.5,2.1
	C5.3,1.9,4.1,2.7,3.9,3.9L3.6,6.1c0,0.2-0.2,0.4-0.4,0.5l-2,1c-1.1,0.6-1.5,1.9-1,3l1,2c0.1,0.2,0.1,0.5,0,0.7l-1,2
	c-0.5,1.1-0.1,2.4,1,3l2,1c0.2,0.1,0.4,0.3,0.4,0.5l0.4,2.2C4.1,23.2,5.1,24,6.2,24c0.1,0,0.2,0,0.3,0l2.2-0.3c0.2,0,0.5,0,0.6,0.2
	l1.6,1.5c0.4,0.4,1,0.6,1.6,0.6c0.6,0,1.1-0.2,1.6-0.6l1.6-1.5c0.2-0.2,0.4-0.2,0.6-0.2l2.2,0.3c1.2,0.2,2.3-0.6,2.6-1.9l0.4-2.2
	c0-0.2,0.2-0.4,0.4-0.5l2-1c1.1-0.6,1.5-1.9,1-3L23.8,13.3z M23,17l-2,1c-0.6,0.3-1,0.9-1.2,1.6l-0.4,2.2c-0.1,0.4-0.5,0.7-0.9,0.6
	l-2.2-0.3c-0.7-0.1-1.4,0.1-1.9,0.6L13,24.3c-0.3,0.3-0.8,0.3-1.1,0l-1.6-1.5c-0.4-0.4-1-0.6-1.6-0.6c-0.1,0-0.2,0-0.3,0l-2.2,0.3
	c-0.4,0.1-0.8-0.2-0.9-0.6L5,19.6c-0.1-0.7-0.5-1.3-1.2-1.6l-2-1c-0.4-0.2-0.5-0.6-0.3-1l1-2c0.3-0.6,0.3-1.4,0-2l-1-2
	c-0.2-0.4,0-0.8,0.3-1l2-1c0.6-0.3,1-0.9,1.2-1.6l0.4-2.2c0.1-0.4,0.5-0.7,0.9-0.6l2.2,0.3C9.2,4,9.8,3.7,10.4,3.3l1.6-1.5
	c0.3-0.3,0.8-0.3,1.1,0l1.6,1.5c0.5,0.5,1.2,0.7,1.9,0.6l2.2-0.3c0.4-0.1,0.8,0.2,0.9,0.6l0.4,2.2C20,7.1,20.5,7.6,21.1,8l2,1
	c0.4,0.2,0.5,0.6,0.3,1l-1,2c-0.3,0.6-0.3,1.4,0,2l1,2C23.6,16.4,23.4,16.8,23,17z"/>
</svg>
