<svg width="29" height="29" viewBox="0 0 29 29" fill="none" xmlns="http://www.w3.org/2000/svg">
<path d="M23.2679 5.73774C20.7932 3.26303 17.5025 1.9 14.0028 1.9C10.5031 1.9 7.2123 3.26308 4.73769 5.73774C2.26303 8.2124 0.9 11.5031 0.9 15.0028C0.9 18.2135 2.04796 21.2479 4.14851 23.6382L1.15248 26.6342C1.15247 26.6342 1.15247 26.6342 1.15247 26.6342C0.815871 26.9708 0.815882 27.5165 1.15247 27.8531C1.32075 28.0214 1.54146 28.1055 1.76188 28.1055C1.98226 28.1055 2.20307 28.0213 2.3713 27.8531L5.36733 24.8571C7.75756 26.9576 10.792 28.1055 14.0028 28.1055C17.5025 28.1055 20.7932 26.7425 23.2678 24.2678C25.7425 21.7932 27.1056 18.5025 27.1056 15.0028C27.1056 11.5031 25.7425 8.2124 23.2679 5.73774ZM14.0028 26.3818C7.72846 26.3818 2.62377 21.2771 2.62377 15.0028C2.62377 8.72846 7.72846 3.62377 14.0028 3.62377C20.2772 3.62377 25.3819 8.72846 25.3819 15.0028C25.3819 21.2771 20.2772 26.3818 14.0028 26.3818ZM9.22837 10.8697C8.75236 10.8697 8.36648 11.2556 8.36648 11.7316C8.36648 12.2076 8.75236 12.5934 9.22837 12.5934H17.6091C18.0851 12.5934 18.471 12.2076 18.471 11.7316C18.471 11.2556 18.0851 10.8697 17.6091 10.8697H9.22837ZM7.34901 14.8011C6.873 14.8011 6.48712 15.187 6.48712 15.663C6.48712 16.139 6.873 16.5248 7.34901 16.5248H20.8089C21.285 16.5248 21.6708 16.139 21.6708 15.663C21.6708 15.187 21.285 14.8011 20.8089 14.8011H7.34901ZM9.22837 18.7122C8.75236 18.7122 8.36648 19.098 8.36648 19.574C8.36648 20.05 8.75236 20.4359 9.22836 20.4359H18.9297C19.4057 20.4359 19.7916 20.05 19.7916 19.574C19.7916 19.098 19.4057 18.7122 18.9297 18.7122H9.22837Z" fill="#ACAFB1" stroke="#ACAFB1" stroke-width="0.2"/>
<path d="M17.3253 8.93786L24.1914 2.07183C24.231 2.03216 24.2953 2.03216 24.335 2.07183L26.9568 4.69366C26.9965 4.73334 26.9965 4.79766 26.9568 4.83733L20.0908 11.7034C20.0718 11.7224 20.0459 11.7331 20.019 11.7331L17.3972 11.7331C17.3411 11.7331 17.2956 11.6876 17.2956 11.6315L17.2956 9.00969C17.2956 8.98275 17.3063 8.95691 17.3253 8.93786Z" fill="white" stroke="#ACAFB1" stroke-width="1.92"/>
</svg>
 