<svg width="214" height="94" viewBox="0 0 214 94" fill="none" xmlns="http://www.w3.org/2000/svg">
<path d="M13.4871 53.5728C13.074 53.5728 12.7229 53.4282 12.4337 53.139C12.1446 52.8499 12 52.4987 12 52.0856V22.8392C12 22.3848 12.1446 22.0336 12.4337 21.7858C12.7229 21.4966 13.074 21.3521 13.4871 21.3521H18.63C19.0844 21.3521 19.4355 21.4966 19.6834 21.7858C19.9726 22.0336 20.1171 22.3848 20.1171 22.8392V25.3796C22.637 22.2815 26.0862 20.7324 30.4649 20.7324C34.2653 20.7324 37.2809 21.9717 39.5115 24.4502C41.7422 26.9287 42.8575 30.3367 42.8575 34.6741V52.0856C42.8575 52.4987 42.7129 52.8499 42.4238 53.139C42.1759 53.4282 41.8248 53.5728 41.3704 53.5728H35.7938C35.3807 53.5728 35.0295 53.4282 34.7404 53.139C34.4512 52.8499 34.3066 52.4987 34.3066 52.0856V35.0459C34.3066 32.65 33.7077 30.7911 32.5097 29.4692C31.3531 28.106 29.6801 27.4244 27.4907 27.4244C25.384 27.4244 23.6903 28.106 22.4098 29.4692C21.1292 30.8324 20.4889 32.6913 20.4889 35.0459V52.0856C20.4889 52.4987 20.3443 52.8499 20.0552 53.139C19.8073 53.4282 19.4562 53.5728 19.0018 53.5728H13.4871Z" fill="#003D61"/>
<path d="M60.0832 54.1924C57.9765 54.1924 56.035 53.7793 54.2587 52.9531C52.5237 52.0856 51.1399 50.929 50.1072 49.4832C49.1158 48.0374 48.6201 46.447 48.6201 44.7121C48.6201 41.9031 49.7561 39.6311 52.028 37.8961C54.3 36.1612 57.4188 34.9839 61.3844 34.3643L69.8733 33.125V31.8238C69.8733 30.0475 69.4189 28.705 68.5102 27.7962C67.6014 26.8874 66.1556 26.433 64.1728 26.433C62.8096 26.433 61.7149 26.6809 60.8887 27.1766C60.0625 27.6723 59.381 28.1886 58.8439 28.7256C58.3482 29.2213 58.0178 29.5518 57.8525 29.717C57.6873 30.2127 57.3775 30.4606 56.9231 30.4606H52.09C51.7182 30.4606 51.3877 30.3367 51.0986 30.0888C50.8507 29.841 50.7268 29.5105 50.7268 29.0974C50.7681 28.0647 51.2638 26.9081 52.2139 25.6275C53.2053 24.3056 54.7131 23.1696 56.7372 22.2195C58.7613 21.2281 61.2605 20.7324 64.2347 20.7324C69.1091 20.7324 72.6617 21.8271 74.8923 24.0165C77.123 26.2058 78.2383 29.0768 78.2383 32.6293V52.0856C78.2383 52.4987 78.0938 52.8499 77.8046 53.139C77.5567 53.4282 77.2056 53.5728 76.7512 53.5728H71.6083C71.1952 53.5728 70.8441 53.4282 70.5549 53.139C70.2658 52.8499 70.1212 52.4987 70.1212 52.0856V49.6691C69.2124 50.991 67.9318 52.0856 66.2795 52.9531C64.6271 53.7793 62.5617 54.1924 60.0832 54.1924ZM62.1899 48.2439C64.4619 48.2439 66.3208 47.5004 67.7666 46.0133C69.2124 44.5262 69.9353 42.3781 69.9353 39.5691V38.3299L63.739 39.3213C58.9885 40.0648 56.6133 41.6552 56.6133 44.0924C56.6133 45.4143 57.1503 46.447 58.2243 47.1906C59.3396 47.8928 60.6615 48.2439 62.1899 48.2439Z" fill="#003D61"/>
<path d="M139.048 53.5728C138.635 53.5728 138.284 53.4282 137.995 53.139C137.706 52.8499 137.561 52.4987 137.561 52.0856V11.0662C137.561 10.6118 137.706 10.2607 137.995 10.0128C138.284 9.72368 138.635 9.5791 139.048 9.5791H144.191C144.604 9.5791 144.955 9.72368 145.244 10.0128C145.534 10.302 145.678 10.6531 145.678 11.0662V32.2575L155.964 22.4054C156.088 22.3228 156.274 22.1782 156.522 21.9717C156.811 21.7238 157.079 21.5586 157.327 21.476C157.575 21.3934 157.885 21.3521 158.257 21.3521H164.143C164.556 21.3521 164.887 21.476 165.135 21.7238C165.382 21.9717 165.506 22.3021 165.506 22.7152C165.506 23.087 165.3 23.4588 164.887 23.8306L152.246 35.7894L166.436 51.1562C166.808 51.528 166.993 51.8791 166.993 52.2096C166.993 52.6227 166.869 52.9531 166.622 53.201C166.374 53.4488 166.064 53.5728 165.692 53.5728H159.682C159.103 53.5728 158.67 53.5108 158.381 53.3869C158.133 53.2216 157.802 52.9325 157.389 52.5194L145.678 40.0648V52.0856C145.678 52.4987 145.534 52.8499 145.244 53.139C144.955 53.4282 144.604 53.5728 144.191 53.5728H139.048Z" fill="#003D61"/>
<path d="M183.525 54.1924C179.725 54.1924 176.73 52.9531 174.541 50.4746C172.351 47.9961 171.257 44.5881 171.257 40.2507V22.8392C171.257 22.3848 171.401 22.0336 171.69 21.7858C171.98 21.4966 172.331 21.3521 172.744 21.3521H178.32C178.734 21.3521 179.085 21.4966 179.374 21.7858C179.663 22.075 179.808 22.4261 179.808 22.8392V39.879C179.808 44.9599 182.018 47.5004 186.438 47.5004C188.586 47.5004 190.279 46.8188 191.519 45.4556C192.799 44.0924 193.439 42.2335 193.439 39.879V22.8392C193.439 22.3848 193.584 22.0336 193.873 21.7858C194.162 21.4966 194.513 21.3521 194.927 21.3521H200.441C200.896 21.3521 201.247 21.4966 201.495 21.7858C201.784 22.0336 201.928 22.3848 201.928 22.8392V52.0856C201.928 52.4987 201.784 52.8499 201.495 53.139C201.247 53.4282 200.896 53.5728 200.441 53.5728H195.298C194.885 53.5728 194.534 53.4282 194.245 53.139C193.956 52.8499 193.811 52.4987 193.811 52.0856V49.5452C191.539 52.6433 188.111 54.1924 183.525 54.1924Z" fill="#003D61"/>
<path d="M123.311 29.9416C119.003 26.4227 112.36 24.6632 103.38 24.6632H99.8643L100.584 9.91987H126.041V0H89.2822L87.9423 34.674H100.741C106.99 34.674 111.389 35.5235 113.937 37.2223C116.546 38.8604 117.85 41.3176 117.85 44.5939C117.85 47.6275 116.637 50.0241 114.21 51.7836C111.844 53.4824 108.568 54.3318 104.381 54.3318C100.862 54.3318 97.4342 53.7857 94.0973 52.6936C90.8456 51.5495 88.0422 50.017 85.687 48.096L85.687 60.4342C87.4251 61.3039 89.3184 62.0607 91.367 62.7045C95.6141 63.9786 100.013 64.6157 104.563 64.6157C110.084 64.6157 114.726 63.7056 118.487 61.8854C122.249 60.0653 125.07 57.6081 126.951 54.5138C128.832 51.4195 129.772 47.9612 129.772 44.1389C129.772 38.1324 127.619 33.3999 123.311 29.9416Z" fill="#7CB048"/>
<path d="M30.1056 88C30.0123 88 29.9376 87.972 29.8816 87.916C29.8256 87.86 29.7976 87.7853 29.7976 87.692V78.522C29.7976 78.4287 29.8256 78.354 29.8816 78.298C29.9376 78.2327 30.0123 78.2 30.1056 78.2H33.7596C34.6836 78.2 35.3836 78.438 35.8596 78.914C36.3356 79.39 36.5736 79.9873 36.5736 80.706C36.5736 81.2567 36.4523 81.7093 36.2096 82.064C35.9669 82.4187 35.6776 82.6753 35.3416 82.834C35.7429 83.0393 36.0789 83.352 36.3496 83.772C36.6296 84.192 36.7696 84.6773 36.7696 85.228C36.7696 85.7133 36.6529 86.1707 36.4196 86.6C36.1956 87.02 35.8643 87.3607 35.4256 87.622C34.9869 87.874 34.4643 88 33.8576 88H30.1056ZM33.5776 82.456C34.2683 82.456 34.7909 82.3067 35.1456 82.008C35.5096 81.7 35.6916 81.266 35.6916 80.706C35.6916 80.1553 35.5096 79.74 35.1456 79.46C34.7909 79.18 34.2683 79.04 33.5776 79.04H30.6796V82.456H33.5776ZM33.7176 87.16C34.3989 87.16 34.9309 86.9827 35.3136 86.628C35.6963 86.264 35.8876 85.7973 35.8876 85.228C35.8876 84.6493 35.6963 84.1827 35.3136 83.828C34.9309 83.4733 34.3989 83.296 33.7176 83.296H30.6796V87.16H33.7176ZM41.0021 88.14C40.5541 88.14 40.1387 88.0467 39.7561 87.86C39.3734 87.6733 39.0654 87.4213 38.8321 87.104C38.6081 86.7867 38.4961 86.4367 38.4961 86.054C38.4961 85.438 38.7434 84.934 39.2381 84.542C39.7421 84.15 40.4187 83.898 41.2681 83.786L43.4801 83.478V82.988C43.4801 82.4747 43.3214 82.0827 43.0041 81.812C42.6961 81.532 42.2201 81.392 41.5761 81.392C41.1001 81.392 40.7081 81.4853 40.4001 81.672C40.1014 81.8587 39.9101 82.0827 39.8261 82.344C39.7887 82.456 39.7421 82.5353 39.6861 82.582C39.6394 82.6193 39.5741 82.638 39.4901 82.638H39.2941C39.2101 82.638 39.1354 82.61 39.0701 82.554C39.0141 82.4887 38.9861 82.414 38.9861 82.33C38.9861 82.1247 39.0794 81.8867 39.2661 81.616C39.4527 81.336 39.7421 81.0933 40.1341 80.888C40.5261 80.6827 41.0067 80.58 41.5761 80.58C42.5747 80.58 43.2841 80.818 43.7041 81.294C44.1241 81.77 44.3341 82.3487 44.3341 83.03V87.692C44.3341 87.7853 44.3061 87.86 44.2501 87.916C44.1941 87.972 44.1194 88 44.0261 88H43.7881C43.6947 88 43.6201 87.972 43.5641 87.916C43.5081 87.86 43.4801 87.7853 43.4801 87.692V87.034C43.2747 87.342 42.9714 87.6033 42.5701 87.818C42.1781 88.0327 41.6554 88.14 41.0021 88.14ZM41.1421 87.328C41.8234 87.328 42.3834 87.104 42.8221 86.656C43.2607 86.208 43.4801 85.564 43.4801 84.724V84.248L41.6741 84.5C40.9087 84.6027 40.3301 84.78 39.9381 85.032C39.5461 85.284 39.3501 85.6013 39.3501 85.984C39.3501 86.4133 39.5274 86.7447 39.8821 86.978C40.2461 87.2113 40.6661 87.328 41.1421 87.328ZM47.1359 88C47.0426 88 46.9679 87.972 46.9119 87.916C46.8559 87.86 46.8279 87.7853 46.8279 87.692V81.028C46.8279 80.9347 46.8559 80.86 46.9119 80.804C46.9679 80.748 47.0426 80.72 47.1359 80.72H47.3739C47.4673 80.72 47.5419 80.748 47.5979 80.804C47.6539 80.86 47.6819 80.9347 47.6819 81.028V87.188H50.6499V81.028C50.6499 80.9347 50.6779 80.86 50.7339 80.804C50.7899 80.748 50.8646 80.72 50.9579 80.72H51.1959C51.2893 80.72 51.3639 80.748 51.4199 80.804C51.4759 80.86 51.5039 80.9347 51.5039 81.028V87.188H54.4719V81.028C54.4719 80.9347 54.4999 80.86 54.5559 80.804C54.6119 80.748 54.6866 80.72 54.7799 80.72H55.0179C55.1113 80.72 55.1859 80.748 55.2419 80.804C55.2979 80.86 55.3259 80.9347 55.3259 81.028V87.692C55.3259 87.7853 55.2979 87.86 55.2419 87.916C55.1859 87.972 55.1113 88 55.0179 88H47.1359ZM62.0651 88C61.9717 88 61.8971 87.972 61.8411 87.916C61.7851 87.86 61.7571 87.7853 61.7571 87.692V81.028C61.7571 80.9347 61.7851 80.86 61.8411 80.804C61.8971 80.748 61.9717 80.72 62.0651 80.72H67.2451C67.3384 80.72 67.4131 80.748 67.4691 80.804C67.5251 80.86 67.5531 80.9347 67.5531 81.028V87.692C67.5531 87.7853 67.5251 87.86 67.4691 87.916C67.4131 87.972 67.3384 88 67.2451 88H67.0071C66.9137 88 66.8391 87.972 66.7831 87.916C66.7271 87.86 66.6991 87.7853 66.6991 87.692V81.532H62.6111V87.692C62.6111 87.7853 62.5831 87.86 62.5271 87.916C62.4711 87.972 62.3964 88 62.3031 88H62.0651ZM72.8755 88.14C71.9048 88.14 71.1488 87.846 70.6075 87.258C70.0755 86.6607 69.7955 85.8907 69.7675 84.948L69.7535 84.36L69.7675 83.772C69.7955 82.8293 70.0755 82.064 70.6075 81.476C71.1488 80.8787 71.9048 80.58 72.8755 80.58C73.8462 80.58 74.5975 80.8787 75.1295 81.476C75.6708 82.064 75.9555 82.8293 75.9835 83.772C75.9928 83.8653 75.9975 84.0613 75.9975 84.36C75.9975 84.6587 75.9928 84.8547 75.9835 84.948C75.9555 85.8907 75.6708 86.6607 75.1295 87.258C74.5975 87.846 73.8462 88.14 72.8755 88.14ZM72.8755 87.328C73.5382 87.328 74.0702 87.118 74.4715 86.698C74.8822 86.2687 75.1015 85.662 75.1295 84.878C75.1388 84.7847 75.1435 84.612 75.1435 84.36C75.1435 84.108 75.1388 83.9353 75.1295 83.842C75.1015 83.058 74.8822 82.456 74.4715 82.036C74.0702 81.6067 73.5382 81.392 72.8755 81.392C72.2128 81.392 71.6762 81.6067 71.2655 82.036C70.8642 82.456 70.6495 83.058 70.6215 83.842L70.6075 84.36L70.6215 84.878C70.6495 85.662 70.8642 86.2687 71.2655 86.698C71.6762 87.118 72.2128 87.328 72.8755 87.328ZM84.9381 80.72C85.0128 80.72 85.0781 80.748 85.1341 80.804C85.1901 80.86 85.2181 80.9207 85.2181 80.986V87.692C85.2181 87.7853 85.1901 87.86 85.1341 87.916C85.0781 87.972 85.0035 88 84.9101 88H84.6721C84.5788 88 84.5041 87.972 84.4481 87.916C84.3921 87.86 84.3641 87.7853 84.3641 87.692V82.456L82.3201 86.418C82.2455 86.5487 82.1755 86.6467 82.1101 86.712C82.0541 86.7773 81.9655 86.81 81.8441 86.81H81.5641C81.4428 86.81 81.3495 86.7773 81.2841 86.712C81.2281 86.6467 81.1628 86.5487 81.0881 86.418L79.0441 82.568V87.692C79.0441 87.7853 79.0161 87.86 78.9601 87.916C78.9041 87.972 78.8295 88 78.7361 88H78.4981C78.4048 88 78.3301 87.972 78.2741 87.916C78.2181 87.86 78.1901 87.7853 78.1901 87.692V80.986C78.1901 80.9207 78.2181 80.86 78.2741 80.804C78.3301 80.748 78.3955 80.72 78.4701 80.72H78.7921C78.9321 80.72 79.0395 80.79 79.1141 80.93L81.7041 85.83L84.2941 80.93C84.3688 80.79 84.4761 80.72 84.6161 80.72H84.9381ZM90.539 88.14C89.5683 88.14 88.8123 87.846 88.271 87.258C87.739 86.6607 87.459 85.8907 87.431 84.948L87.417 84.36L87.431 83.772C87.459 82.8293 87.739 82.064 88.271 81.476C88.8123 80.8787 89.5683 80.58 90.539 80.58C91.5097 80.58 92.261 80.8787 92.793 81.476C93.3343 82.064 93.619 82.8293 93.647 83.772C93.6563 83.8653 93.661 84.0613 93.661 84.36C93.661 84.6587 93.6563 84.8547 93.647 84.948C93.619 85.8907 93.3343 86.6607 92.793 87.258C92.261 87.846 91.5097 88.14 90.539 88.14ZM90.539 87.328C91.2017 87.328 91.7337 87.118 92.135 86.698C92.5457 86.2687 92.765 85.662 92.793 84.878C92.8023 84.7847 92.807 84.612 92.807 84.36C92.807 84.108 92.8023 83.9353 92.793 83.842C92.765 83.058 92.5457 82.456 92.135 82.036C91.7337 81.6067 91.2017 81.392 90.539 81.392C89.8763 81.392 89.3397 81.6067 88.929 82.036C88.5277 82.456 88.313 83.058 88.285 83.842L88.271 84.36L88.285 84.878C88.313 85.662 88.5277 86.2687 88.929 86.698C89.3397 87.118 89.8763 87.328 90.539 87.328ZM104.814 89.82C104.72 89.82 104.646 89.792 104.59 89.736C104.534 89.68 104.506 89.6053 104.506 89.512V88H96.1616C96.0683 88 95.9936 87.972 95.9376 87.916C95.8816 87.86 95.8536 87.7853 95.8536 87.692V81.028C95.8536 80.9347 95.8816 80.86 95.9376 80.804C95.9936 80.748 96.0683 80.72 96.1616 80.72H96.3996C96.493 80.72 96.5676 80.748 96.6236 80.804C96.6796 80.86 96.7076 80.9347 96.7076 81.028V87.188H99.6756V81.028C99.6756 80.9347 99.7036 80.86 99.7596 80.804C99.8156 80.748 99.8903 80.72 99.9836 80.72H100.222C100.315 80.72 100.39 80.748 100.446 80.804C100.502 80.86 100.53 80.9347 100.53 81.028V87.188H103.498V81.028C103.498 80.9347 103.526 80.86 103.582 80.804C103.638 80.748 103.712 80.72 103.806 80.72H104.044C104.137 80.72 104.212 80.748 104.268 80.804C104.324 80.86 104.352 80.9347 104.352 81.028V87.188H105.052C105.145 87.188 105.22 87.216 105.276 87.272C105.332 87.328 105.36 87.4027 105.36 87.496V89.512C105.36 89.6053 105.332 89.68 105.276 89.736C105.22 89.792 105.145 89.82 105.052 89.82H104.814ZM107.571 88C107.477 88 107.403 87.972 107.347 87.916C107.291 87.86 107.263 87.7853 107.263 87.692V81.028C107.263 80.9347 107.291 80.86 107.347 80.804C107.403 80.748 107.477 80.72 107.571 80.72H107.809C107.902 80.72 107.977 80.748 108.033 80.804C108.089 80.86 108.117 80.9347 108.117 81.028V83.87H112.485V81.028C112.485 80.9347 112.513 80.86 112.569 80.804C112.625 80.748 112.699 80.72 112.793 80.72H113.031C113.124 80.72 113.199 80.748 113.255 80.804C113.311 80.86 113.339 80.9347 113.339 81.028V87.692C113.339 87.7853 113.311 87.86 113.255 87.916C113.199 87.972 113.124 88 113.031 88H112.793C112.699 88 112.625 87.972 112.569 87.916C112.513 87.86 112.485 87.7853 112.485 87.692V84.682H108.117V87.692C108.117 87.7853 108.089 87.86 108.033 87.916C107.977 87.972 107.902 88 107.809 88H107.571ZM121.678 80.72C121.753 80.72 121.818 80.748 121.874 80.804C121.93 80.86 121.958 80.9207 121.958 80.986V87.692C121.958 87.7853 121.93 87.86 121.874 87.916C121.818 87.972 121.744 88 121.65 88H121.412C121.319 88 121.244 87.972 121.188 87.916C121.132 87.86 121.104 87.7853 121.104 87.692V82.148L116.792 87.79C116.69 87.93 116.568 88 116.428 88H116.162C116.088 88 116.022 87.972 115.966 87.916C115.91 87.86 115.882 87.7947 115.882 87.72V81.028C115.882 80.9347 115.91 80.86 115.966 80.804C116.022 80.748 116.097 80.72 116.19 80.72H116.428C116.522 80.72 116.596 80.748 116.652 80.804C116.708 80.86 116.736 80.9347 116.736 81.028V86.572L121.048 80.93C121.151 80.79 121.272 80.72 121.412 80.72H121.678ZM130.032 87.622C130.079 87.678 130.102 87.7387 130.102 87.804C130.102 87.9347 130.014 88 129.836 88H129.472C129.332 88 129.211 87.9347 129.108 87.804L126.896 84.71H125.356V87.692C125.356 87.7853 125.328 87.86 125.272 87.916C125.216 87.972 125.142 88 125.048 88H124.81C124.717 88 124.642 87.972 124.586 87.916C124.53 87.86 124.502 87.7853 124.502 87.692V81.028C124.502 80.9347 124.53 80.86 124.586 80.804C124.642 80.748 124.717 80.72 124.81 80.72H125.048C125.142 80.72 125.216 80.748 125.272 80.804C125.328 80.86 125.356 80.9347 125.356 81.028V83.87H126.854L128.912 80.93C129.015 80.79 129.136 80.72 129.276 80.72H129.556C129.64 80.72 129.706 80.7387 129.752 80.776C129.808 80.804 129.836 80.8507 129.836 80.916C129.836 80.9533 129.813 81.0093 129.766 81.084L127.596 84.192L130.032 87.622ZM136.062 88C135.968 88 135.894 87.972 135.838 87.916C135.782 87.86 135.754 87.7853 135.754 87.692V81.028C135.754 80.9347 135.782 80.86 135.838 80.804C135.894 80.748 135.968 80.72 136.062 80.72H138.82C139.576 80.72 140.164 80.8927 140.584 81.238C141.013 81.5833 141.228 82.0453 141.228 82.624C141.228 83.044 141.148 83.366 140.99 83.59C140.84 83.814 140.593 84.0053 140.248 84.164C140.602 84.2947 140.878 84.5327 141.074 84.878C141.27 85.2233 141.368 85.5873 141.368 85.97C141.368 86.6233 141.144 87.1273 140.696 87.482C140.257 87.8273 139.655 88 138.89 88H136.062ZM138.68 83.926C139.193 83.926 139.604 83.8093 139.912 83.576C140.22 83.3427 140.374 83.0253 140.374 82.624C140.374 82.232 140.224 81.952 139.926 81.784C139.636 81.616 139.221 81.532 138.68 81.532H136.608V83.926H138.68ZM138.778 87.188C139.31 87.188 139.73 87.0853 140.038 86.88C140.355 86.6653 140.514 86.362 140.514 85.97C140.514 85.55 140.369 85.242 140.08 85.046C139.8 84.8407 139.366 84.738 138.778 84.738H136.608V87.188H138.778ZM153.069 80.72C153.144 80.72 153.209 80.748 153.265 80.804C153.321 80.86 153.349 80.9253 153.349 81C153.349 81.0467 153.321 81.14 153.265 81.28L150.605 87.524L150.409 88C150.185 88.5507 149.98 88.9987 149.793 89.344C149.616 89.6987 149.387 90.0067 149.107 90.268C148.836 90.5293 148.519 90.66 148.155 90.66H147.679C147.586 90.66 147.511 90.632 147.455 90.576C147.399 90.52 147.371 90.4453 147.371 90.352V90.156C147.371 90.0627 147.399 89.988 147.455 89.932C147.511 89.876 147.586 89.848 147.679 89.848H148.001C148.225 89.848 148.402 89.8013 148.533 89.708C148.673 89.6147 148.799 89.4653 148.911 89.26C149.023 89.064 149.172 88.7467 149.359 88.308L149.667 87.58L146.951 81.28C146.895 81.14 146.867 81.0467 146.867 81C146.867 80.9253 146.895 80.86 146.951 80.804C147.007 80.748 147.072 80.72 147.147 80.72H147.413C147.562 80.72 147.67 80.79 147.735 80.93L150.129 86.502L152.495 80.93C152.56 80.79 152.668 80.72 152.817 80.72H153.069ZM159.765 88C159.672 88 159.597 87.972 159.541 87.916C159.485 87.86 159.457 87.7853 159.457 87.692V84.836C159.196 85.0973 158.878 85.2887 158.505 85.41C158.141 85.522 157.712 85.578 157.217 85.578C155.537 85.578 154.697 84.8827 154.697 83.492V81.028C154.697 80.9347 154.725 80.86 154.781 80.804C154.837 80.748 154.912 80.72 155.005 80.72H155.243C155.336 80.72 155.411 80.748 155.467 80.804C155.523 80.86 155.551 80.9347 155.551 81.028V83.422C155.551 83.8793 155.691 84.22 155.971 84.444C156.251 84.6587 156.685 84.766 157.273 84.766C157.982 84.766 158.524 84.682 158.897 84.514C159.27 84.3367 159.457 84.0473 159.457 83.646V81.028C159.457 80.9347 159.485 80.86 159.541 80.804C159.597 80.748 159.672 80.72 159.765 80.72H160.003C160.096 80.72 160.171 80.748 160.227 80.804C160.283 80.86 160.311 80.9347 160.311 81.028V87.692C160.311 87.7853 160.283 87.86 160.227 87.916C160.171 87.972 160.096 88 160.003 88H159.765ZM165.566 88.14C164.679 88.14 163.965 87.8507 163.424 87.272C162.883 86.684 162.575 85.9 162.5 84.92L162.486 84.36L162.5 83.8C162.575 82.8293 162.878 82.05 163.41 81.462C163.951 80.874 164.67 80.58 165.566 80.58C166.537 80.58 167.293 80.902 167.834 81.546C168.385 82.19 168.66 83.072 168.66 84.192V84.402C168.66 84.4953 168.627 84.57 168.562 84.626C168.506 84.682 168.431 84.71 168.338 84.71H163.354V84.85C163.373 85.2887 163.471 85.6993 163.648 86.082C163.835 86.4553 164.091 86.7587 164.418 86.992C164.745 87.216 165.127 87.328 165.566 87.328C166.079 87.328 166.495 87.23 166.812 87.034C167.139 86.8287 167.372 86.6233 167.512 86.418C167.596 86.306 167.657 86.236 167.694 86.208C167.741 86.18 167.82 86.166 167.932 86.166H168.156C168.24 86.166 168.31 86.1893 168.366 86.236C168.422 86.2827 168.45 86.3433 168.45 86.418C168.45 86.614 168.324 86.852 168.072 87.132C167.829 87.4027 167.489 87.6407 167.05 87.846C166.611 88.042 166.117 88.14 165.566 88.14ZM167.806 83.926V83.87C167.806 83.1513 167.601 82.5587 167.19 82.092C166.789 81.6253 166.247 81.392 165.566 81.392C164.885 81.392 164.343 81.6253 163.942 82.092C163.55 82.5587 163.354 83.1513 163.354 83.87V83.926H167.806ZM176.792 84.192C176.802 84.2853 176.806 84.4253 176.806 84.612C176.806 84.7707 176.802 84.8827 176.792 84.948C176.764 85.8907 176.48 86.6607 175.938 87.258C175.406 87.846 174.655 88.14 173.684 88.14C172.714 88.14 171.958 87.846 171.416 87.258C170.875 86.6607 170.59 85.8907 170.562 84.948V83.282C170.562 81.938 170.721 80.93 171.038 80.258C171.365 79.586 171.827 79.1053 172.424 78.816C173.022 78.5267 173.974 78.2047 175.28 77.85C175.411 77.822 175.607 77.7707 175.868 77.696L175.938 77.682C176.004 77.682 176.06 77.7053 176.106 77.752C176.162 77.7893 176.2 77.8407 176.218 77.906L176.274 78.172C176.284 78.1907 176.288 78.2187 176.288 78.256C176.288 78.3213 176.27 78.3773 176.232 78.424C176.195 78.4613 176.144 78.4893 176.078 78.508L175.168 78.746C174.142 79.0167 173.395 79.2547 172.928 79.46C172.462 79.656 172.093 79.9687 171.822 80.398C171.561 80.8273 171.421 81.462 171.402 82.302C171.636 81.91 171.972 81.5973 172.41 81.364C172.849 81.1213 173.32 81 173.824 81C174.73 81 175.444 81.2987 175.966 81.896C176.489 82.4933 176.764 83.2587 176.792 84.192ZM175.938 84.878C175.948 84.822 175.952 84.7333 175.952 84.612C175.952 84.472 175.948 84.3553 175.938 84.262C175.91 83.4873 175.7 82.8853 175.308 82.456C174.916 82.0267 174.422 81.812 173.824 81.812C173.152 81.812 172.592 82.0267 172.144 82.456C171.696 82.8853 171.458 83.4873 171.43 84.262L171.416 84.612L171.43 84.878C171.458 85.662 171.673 86.2687 172.074 86.698C172.485 87.118 173.022 87.328 173.684 87.328C174.347 87.328 174.879 87.118 175.28 86.698C175.691 86.2687 175.91 85.662 175.938 84.878ZM181.712 88.14C180.825 88.14 180.111 87.8507 179.57 87.272C179.028 86.684 178.72 85.9 178.646 84.92L178.632 84.36L178.646 83.8C178.72 82.8293 179.024 82.05 179.556 81.462C180.097 80.874 180.816 80.58 181.712 80.58C182.682 80.58 183.438 80.902 183.98 81.546C184.53 82.19 184.806 83.072 184.806 84.192V84.402C184.806 84.4953 184.773 84.57 184.708 84.626C184.652 84.682 184.577 84.71 184.484 84.71H179.5V84.85C179.518 85.2887 179.616 85.6993 179.794 86.082C179.98 86.4553 180.237 86.7587 180.564 86.992C180.89 87.216 181.273 87.328 181.712 87.328C182.225 87.328 182.64 87.23 182.958 87.034C183.284 86.8287 183.518 86.6233 183.658 86.418C183.742 86.306 183.802 86.236 183.84 86.208C183.886 86.18 183.966 86.166 184.078 86.166H184.302C184.386 86.166 184.456 86.1893 184.512 86.236C184.568 86.2827 184.596 86.3433 184.596 86.418C184.596 86.614 184.47 86.852 184.218 87.132C183.975 87.4027 183.634 87.6407 183.196 87.846C182.757 88.042 182.262 88.14 181.712 88.14ZM183.952 83.926V83.87C183.952 83.1513 183.746 82.5587 183.336 82.092C182.934 81.6253 182.393 81.392 181.712 81.392C181.03 81.392 180.489 81.6253 180.088 82.092C179.696 82.5587 179.5 83.1513 179.5 83.87V83.926H183.952Z" fill="#06081C" fill-opacity="0.6"/>
</svg>
